<svg xmlns="http://www.w3.org/2000/svg" width="211389.698" height="86470.231" viewBox="0 0 198.17784 81.06584"><g transform="translate(-133.848 -248.55)" fill="none" stroke="#000"><path d="M134.286 248.79l43.57 79.286 20.715-32.857 12.224 19.64 19.92-32.498"/><ellipse cx="235.5" cy="307.076" rx="7.082" ry="7.082" stroke-width=".835"/><path d="M250.973 304.254s.464-4.196 4.018-4.235c3.556-.04 3.58 4.175 3.58 4.175m-7.597-4.627v14.79h-.255" stroke-width=".912"/><path d="M266.05 289.904l.063 24.893" stroke-width=".981"/><path d="M283.51 306.064c-11.43-8.392-12.742 14.73-.133 6.285m-.025-22.343c.03 8.297.058 20.04.087 24.892M290.49 301.05l6.423.005m-3.286 13.93l-.044-19.273c-.02-6.96 8.06-7.39 8.176.827"/><path d="M307.87 289.918l.062 24.893" stroke-width=".981"/><path d="M331.603 303.977L315.56 329.35m2.094-25.41l6.998 11.144"/></g></svg>
