
<?xml version="1.0" encoding="UTF-8" standalone="no"?>
<svg
   xmlns:dc="http://purl.org/dc/elements/1.1/"
   xmlns:cc="http://creativecommons.org/ns#"
   xmlns:rdf="http://www.w3.org/1999/02/22-rdf-syntax-ns#"
   xmlns:svg="http://www.w3.org/2000/svg"
   xmlns="http://www.w3.org/2000/svg"
   version="1.1"
   id="svg2"
   viewBox="0 0 198.23695 85.065653"
   height="24.007418mm"
   width="55.946873mm">
  <defs
     id="defs4" />
  <metadata
     id="metadata7">
    <rdf:RDF>
      <cc:Work
         rdf:about="">
        <dc:format>image/svg+xml</dc:format>
        <dc:type
           rdf:resource="http://purl.org/dc/dcmitype/StillImage" />
        <dc:title></dc:title>
      </cc:Work>
    </rdf:RDF>
  </metadata>
  <g
     transform="translate(-133.84752,-248.54997)"
     id="layer1">
    <path
       id="path3336"
       d="m 134.28571,248.79078 43.57143,79.28571 20.71429,-32.85714 13.57143,18.57143 18.57143,-31.42858"
       style="fill:none;fill-rule:evenodd;stroke:#000000;stroke-width:1px;stroke-linecap:butt;stroke-linejoin:miter;stroke-opacity:1" />
    <ellipse
       ry="7.0824833"
       rx="7.0824828"
       cy="311.07645"
       cx="235.5"
       id="path4140"
       style="fill:none;fill-rule:evenodd;stroke:#000000;stroke-width:0.83503383px;stroke-linecap:butt;stroke-linejoin:miter;stroke-opacity:1" />
    <path
       d="m 248.97275,308.25432 c 0,0 0.46415,-4.19643 4.0186,-4.23487 3.55445,-0.0384 3.58011,4.17595 3.58011,4.17595 m -7.59871,-4.62768 0,14.79026 -0.25487,0"
       style="fill:none;fill-rule:evenodd;stroke:#000000;stroke-width:0.91152316px;stroke-linecap:butt;stroke-linejoin:miter;stroke-opacity:1"
       id="path4146" />
    <path
       id="path4148"
       d="m 264.13779,293.90395 0.0875,24.89273"
       style="fill:none;fill-rule:evenodd;stroke:#000000;stroke-width:1.15604639px;stroke-linecap:butt;stroke-linejoin:miter;stroke-opacity:1" />
    <path
       d="m 281.50984,310.06353 c -11.43047,-8.39173 -12.74211,14.72995 -0.13258,6.28531 m -0.0254,-22.34226 c 0.0292,8.29758 0.0583,20.03933 0.0875,24.89273"
       style="fill:none;fill-rule:evenodd;stroke:#000000;stroke-width:1px;stroke-linecap:butt;stroke-linejoin:miter;stroke-opacity:1"
       id="path4167" />
    <path
       d="m 288.48915,305.04999 6.42379,0.005 m -3.28602,13.92863 -0.0441,-19.27183 c -0.0206,-6.95905 8.06007,-7.38942 8.17586,0.82719"
       style="fill:none;fill-rule:evenodd;stroke:#000000;stroke-width:1px;stroke-linecap:butt;stroke-linejoin:miter;stroke-opacity:1"
       id="path4188" />
    <path
       id="path4148-4"
       d="m 307.95625,293.91844 0.0875,24.89273"
       style="fill:none;fill-rule:evenodd;stroke:#000000;stroke-width:1.15604639px;stroke-linecap:butt;stroke-linejoin:miter;stroke-opacity:1" />
    <path
       d="m 331.66176,307.85944 -16.10264,25.48914 m 0.79682,-25.4686 8.29569,11.20389"
       style="fill:none;fill-rule:evenodd;stroke:#000000;stroke-width:1px;stroke-linecap:butt;stroke-linejoin:miter;stroke-opacity:1"
       id="path4208" />
  </g>
</svg>
