<svg xmlns="http://www.w3.org/2000/svg" width="1287.5" height="407.5" viewBox="0 0 1287.5 407.5"><defs><clipPath id="a"><path d="M0 326h1030V0H0v326z"/></clipPath></defs><g clip-path="url(#a)" transform="matrix(1.25 0 0 -1.25 0 407.5)"><path d="M948.836 263.48c-13.73 6.906-31.033-46.903-34.4-68.587 0 0 10.6 5.86 14.142 9.99 4.442 3.428 33.99 51.693 20.258 58.598zm-25.76-120.065c3.91.612 9.187 2.658 10.075-.922.89-3.58-17-5.295-21.674-2.013-10.97 12.848-4.234 45.428-4.234 45.428s-9.403-2.05-8.824 1.568c.58 3.62 10.218 5.445 10.218 5.445s9.165 37.68 13.95 49.26c4.786 11.578 12.19 24.66 23.46 28.37 7.08 2.093 12.7-1.625 10.634-17.745-2.064-16.12-11.488-37.3-25.118-52.058-4.345-4.75-19.517-13.95-19.517-13.95-5.403-33.353 1.504-44.873 11.032-43.382zM964.124 182.962c-4.09-1.08-9.787-17.845-9.787-17.845s12.803-2.564 15.687 7.577c2.884 10.14-2.213 11.302-5.467 10.442m-18.51-20.85c-.18 1.7.354 3.033.566 4.34.478.803 2.766-.284 2.766-.284s5.496 20.83 14.95 22.427c4.675.667 9.752.13 11.716-5.123.723-4.69.098-7.065-1.464-11.253-1.728-4.63-4.36-9.262-8.438-10.562-4.313-1.375-12.67-.818-12.67-.818s-1.41-8.43 6.725-12.028c27.514-8.618 39.502 24.846 45.795 22.158 2.69-1.45-5.674-11.226-12.92-18.32-7.248-7.097-20.677-13.24-35.492-7.667-9.546 3.81-8.858 16.25-8.858 16.25M867.424 144.417c9.884-1.437 14.496 6.145 16.02 13.23.803 13.948-8.664 17.82-17.092 12.474-2.837-1.818-8.813-24.265 1.072-25.703zm-2.32 32.823s6.664.767 8.942.67c5.74-.247 10.38-1.075 13.787-10.255 3.406-9.18-1.775-26.37-15.227-29.105-14.722-.387-18.732 7.632-17.266 20.286 8.38 30.547 18.75 102.505 20.408 108.335 1.66 5.83 5.275 5.547 5.06 1.543-4.67-32.715-15.703-91.473-15.703-91.473zM837.58 180.657c-3.14 4.904-1.306 13.02 6.72 11.04 3.346-1.308 3.985-5.584 1.68-9.708-2.122-2.466-5.81-2.974-8.4-1.333zM837.807 175.27c6.53 2.846 2.545-9.31 1.35-16.577-1.195-7.267-2.862-16.14-3.83-17.216-1.574-1.546-3.72-.23-4.558 2.28-.84 2.51 3.672 29.757 7.037 31.513zM761.18 175.53c-1.772-8.12 11.467-9.55 14.707-13.7 1.76-2.324 3.474-6.003 2.64-10.56-.433-2.366-2.772-6.16-5.04-7.68-5.46-3.656-18.77-2.27-23.28 1.68-1.5 1.314-3.544 4.028.146 4.41 3.69.38 23.133-10.113 22.583 5.157-4.99 11.568-15.876 6.757-16.73 18.033-.235 4.027 2.158 8.298 5.76 9.36 6.618 1.95 14.563-1.117 18.72-2.88 2.004-.85 4.244-.943 2.692-4.433-4.968-2.263-20.425 8.73-22.198.612zM799.844 175.293c-1.812-4.624 4.895-6.882 7.002-8.423 5.993-3.978 8.686-10.247 7.652-16.57-2.805-12.003-20.94-11.08-27.465-5.877-1.5 1.314.303 4.928 2.962 4.042 2.658-.887 25.18-7.496 17.933 8.584-7.313 9.12-14.04 10.917-13.426 16.44-.235 4.028 1.3 7.198 4.904 8.26 6.617 1.95 13.95-.138 18.108-1.9 3.716-2.686 4.61-4.86 1.57-5.744-4.745 1.323-17.76 7.07-19.24 1.187zM724.135 147.12c4.484.762 9.372 6.492 9.79 10.808.663 6.854-.498 17.282-7.836 16.194-7.003-1.074-12.494-8.222-11.762-15.356.732-7.134 5.324-12.41 9.807-11.647zm-10.68-2.233c-5.197 6.415-6.564 17.815-2.37 25.583 2.192 4.06 6.476 8.316 10.8 9.12 13.073 2.43 18.6-5.644 18.24-17.76-.184-6.248-4.526-13.866-7.92-16.56-4.403-3.496-12.26-4.71-18.75-.383M679.124 175.13c-7.18-1.043-8.555-19.807-8.994-26.025 9.103-2.512 23.458-.86 23.526 9.896.068 10.76-6.007 18.15-14.532 16.13zM648.14 40.442c-1.037-4.226-4.108-22.44-7.026-23.21-3.683-.384-1.965 8.254 2.868 31.85 4.833 23.596 16.512 75.905 22.425 117.65 2.247 7.382 5.803 13.635 11.32 14.298 10.685 1.284 18.9-5.745 21.12-13.2 2.368-7.963-.852-16.49-4.8-20.88-6.295-6.996-24.708-3.558-24.708-3.558M605.485 144.87c-1.533-5.236-9.346-6.375-17.04-5.76-6.562.522-14.02 4.773-12.24 8.4 3.037 3.924 22.08-7.317 22.576-.952.496 6.365-10.547 13.47-12.975 19.19-2.885 7.748 1.38 14.117 7.893 14.963 3.123.407 5.424.68 10.307-1.76 4.884-2.444 3.86-13.518.76-12.96-2.768.763.316 3.855-2.16 6.96-1.81 2.27-9.346 3.97-11.43.366-2.085-3.603 4.634-10.9 7.59-14.287 3.43-3.858 7.475-6.595 6.72-14.16M568.767 198.55c6.747 1.647 9.915-4.205 7.68-10.32-.383-1.05-2.102-2.77-3.12-3.12-5.367-1.842-11.3 2.505-9.12 9.6.363 1.18 1.772 3.16 4.56 3.84M569.206 175.595c2.98-1.655.006-11.304-1-17.313-1.03-6.156-2.888-17.99-4.575-18.95-2.737-.994-3.864.272-4.997 2.248-.875 2.188 1.404 12.612 2.878 19.144 1.592 7.045 2.066 15.26 7.696 14.87M483.716 150.433c5.913-.51 13.258 11.588 12.97 19.02-2.408 7.973-13.81 4.042-17.176-2.207-2.716-5.32-1.708-16.303 4.206-16.813zm2.03-6.335c-15.04-.97-17.633 12.427-14.1 22.052 3.214 5.89 5.284 10.167 12.066 12.173 6.83 1.786 15.054 1.77 17.402-2.103 1.11-1.83 2.848-6.083 2.292-9.703-1.27-8.258-5.407-10.818-5.12-21.007 2.865-25.942 8.98-46.948 13.684-70.174 3.11-15.228 4.665-34.35-3.3-48.582-7.964-14.234-16.57-16.465-30.544-19.588-15.92-1.6-37.574 2.047-47.617 6.324-10.043 4.277-30.146 12.388-29.184 17.78.963 5.392 8.5-1.87 11.13-2.973 18.77-8.502 39.28-18.766 63.042-15.223 9.292 1.664 20.544 6.916 24.336 13.106 3.793 6.19 7.908 18.503 7.422 29.263-.486 10.76-2.217 19.59-3.907 28.917-4.008 20.877-9.455 42.136-11.786 61.358M427.665 180.56c8.436 9.692 21.33 7.71 26.092-1.468 4.763-9.18 1.412-37.234-3.427-38.443-4.838-1.21-2.17 4.74-1.06 14.645 1.112 9.906 3.003 19.712-3.284 24.455-6.286 4.743-15.678-4.194-19.712-9.177-4.035-4.983-7.78-21.24-8.284-26.883-.503-5.642-4.552-4.08-4.54.284.014 4.364 1.392 14.238 3.64 29.68.607 4.18 2.49 15.6 5.573 18.456 5.46 5.155-.23-18.596-.23-18.596M402.346 189.095c-2.276-1.004-5.328-1.567-6.676 1.555-1.347 3.122 7.747 8.002 8.534 2.908.265-1.72.483-2.713-1.08-3.9M391.94 137.244c-1.607-2.33-4.807-4.007-5.654 1.353-.847 5.36 6.452 37.886 7.2 41.473.748 3.586 7 5.547 6.94-.35-.057-5.897-7.488-39.032-8.053-41.222M354.58 184.254c3.923.884 9.276-.698 11.064-1.77 4.516-2.71 7.664-6.527 8.152-14.39.594-6.29-.998-27.607-3.988-29.034-8.192-2.367-.42 15.22-2.844 28-.96 7.957-9.465 14.198-17.153 8.58-9.15-6.774-6.79-29.17-10.54-35.048-1.857-2.71-3.995-2.436-5.304 1.078-2.543 4.256 11.71 78.09 18.72 110.64.518 2.342 1.888 7.08 3.84 7.68 5.027 1.447 1.927-12.565.96-17.342-3.377-19.705-11.126-60.566-11.126-60.566M305.798 187.49s14.348 6.8 20.483 8.34c1.777.447 6.636 1.1 4.315-3.822-6.82-3.537-26.31-11.463-26.31-11.463s-5.74-18.574-3.437-29.338c2.366-7.89 19.777-8.056 15.796-12.62-3.98-4.565-20.14 3.274-21.02 11.214-2.25 8.007 2.397 28.914 2.397 28.914-9.4-.398-13.152-3.557-13.388.2.974 4.1 14.1 6.436 14.1 6.436s19.723 62.02 23.24 69.337c3.517 7.317 6.57 3.307 4.667-2.3-1.903-5.607-20.842-64.898-20.842-64.898zM237.69 183.75c9.706 6.316-1.605-21.58-2.608-28.113-1.003-6.535.035-11.94 8.037-11.262 4.345 1.51 8.138 6.406 10.212 10.782 3.827 7.49 3.547 17.672 7.562 23.812 9.06 3.9 2.017-13.097 1.567-24.26 1.79-14.992 4.414-18.52 7.71-32.753 1.306-5.714 6.694-23.782 6.417-32.325-.277-8.543 1.143-14.273-7.162-25.138-9.36-10.978-29.398-11.03-38.607-9.69-17.562 3.46-38.494 15.395-38.512 30.334.11 10.232 8.25 15 15.59 16.526 7.338 1.526 16.872 1.86 17.24-3.557-5.886-.195-11.914.178-18.766-2.846-6.852-3.023-13.15-11.608-.518-22.882 12.632-11.273 36.068-15.75 51.723-7.503 7.97 3.992 11.634 14.108 11.962 21.952-.92 20.093-8.364 41.05-12.73 59.91 0 0-5.242-6.037-9.802-8.077-3.87-1.732-11.71-3.675-16.986 2.184-5.28 5.86 3.06 37.338 7.632 42.908M190.855 186.585c4.512 1.917 8.315 2.854 13.62 2.828 4.023-.448 9.68-6.172 8.987-16.744-.52-5.834-3.103-37.918-8.94-37.563-5.84.356 1.615 15.813 2.046 35.412 1.25 17.32-14.45 10.913-17.732.366-5.048-11.532-6.983-25.687-10.654-34.324-2.366-1.898-2.45-2.46-4.536-.134-1.108 3.06 7.146 29.34 13.103 56.393 1.876 3.004 6.215.656 5.12-2.036M59.46 187.71c12.9-1.41 26.33 1.89 38.467 8.024-1.313 14.366 1.678 62.86 1.678 62.86S68.075 203.11 59.46 187.71zm71.634 22.26c6.55 2.37 5.602-4.85-.408-9.5-6.023-5.22-22.61-12.095-22.61-12.095s10.3-27.008 19.63-37.49c9.33-10.48 18.195-7.44 24.075-6.89 5.88.547 9.233-4.807 1.395-6.984-7.84-2.176-16.528-3.29-26.502 3.867C107.7 154.83 98.58 184.962 98.58 184.962s-28.166-7.976-44.028-7.927c-12.76-11.734-28.857-51.546-33.79-42.127-1.467 4.05.525 8.922 21.754 42.994 0 0-15.98 2.192-18.15 6.248-2.98 4.924 2.012 7.244 4.074 7.307 8.42-1.545 20.166-2.987 20.166-2.987 11.445 14.467 71.62 132.354 75.336 127.887 3.422-2.344-13.36-34.753-15.1-53.842-3.51-16.445-4.915-47.85-2.623-62.93" fill-rule="evenodd"/></g></svg>
