<svg xmlns="http://www.w3.org/2000/svg" width="1287.5" height="407.5" viewBox="0 0 1287.5 407.5"><defs><clipPath id="a"><path d="M0 326h1030V0H0v326z"/></clipPath></defs><g clip-path="url(#a)" transform="matrix(1.25 0 0 -1.25 0 407.5)"><path d="M942.642 205.32c4.175 3.235 30.296 51.134 20.97 55.96-9.325 4.824-28.096-42.378-31.463-64.062 0 0 7.17 4.146 10.44 8.085m-14.302-38.428c1.08-13.166 3.824-22.136 13.352-20.645 3.91.612 10.93 3.682 10.32-2.88-.694-7.46-19.817-6.152-24.49-2.87-10.97 12.848-4.235 45.428-4.235 45.428s-9.403-2.05-8.824 1.568c.58 3.62 10.393 6.656 10.393 6.656s8.99 36.47 13.775 48.048c4.787 11.578 12.19 24.66 23.46 28.37 7.08 2.093 11.12-4.846 11.155-16.707-4.146-20.223-12.01-38.34-25.64-53.096-4.344-4.75-15.93-12.366-15.93-12.366m48.494-5.412c-4.09-1.08-9.79-17.845-9.79-17.845s12.805-2.564 15.69 7.577c2.883 10.14-2.214 11.3-5.468 10.44m-18.51-20.85c-.18 1.7.354 3.033.566 4.34.48.803 2.765-.284 2.765-.284s5.496 20.83 14.95 22.427c4.675.668 9.75.13 11.716-5.122.725-4.69.1-7.063-1.462-11.25-1.727-4.63-4.36-9.263-8.437-10.563-4.31-1.373-12.67-.816-12.67-.816s-1.41-8.43 6.728-12.03c27.514-8.62 39.502 24.847 45.795 22.16 2.69-1.45-5.673-11.227-12.92-18.32-7.247-7.098-20.676-13.24-35.49-7.668-9.546 3.81-8.858 16.25-8.858 16.25m-81.637 8.105c-5.176-3.934-6.366-23.9 1.44-24.48 7.803-.58 11.436 4.677 12.96 11.76 1.977 9.31.138 15.283-10.08 13.92-2.006-.267-3.216-.36-4.32-1.2m16.32 101.28c-3.632-30.81-16.744-93.376-16.744-93.376s5.11.594 7.387.496c5.74-.248 11.726-.22 13.786-10.256 2.06-10.038-1.775-26.37-15.227-29.106-14.724-.39-19.468 7.263-18 19.92 8.38 30.544 18.442 103.91 21.833 109.74 3.39 5.83 6.14 4.68 6.966 2.58M861.98 181.38c-2.12-1.365-5.81-2.36-8.4-.72-3.14 4.903-1.304 13.02 6.72 11.04 3.348-1.31 3.987-7.3 1.68-10.32m-15.21-38.846c-.53 5.43 3.674 30.983 7.04 32.74 6.53 2.845 2.543-9.31 1.35-16.578-1.197-7.267-2.864-16.14-3.83-17.216-1.576-1.548-3.567-.525-4.56 1.053m-46.964 32.02c-4.418-1.774-20.365 6.16-20.914 0-.55-6.16 9.755-8.57 12.995-12.72 1.76-2.325 3.476-6.004 2.64-10.56-.43-2.367-2.77-6.16-5.04-7.68-5.46-3.657-18.77-2.27-23.28 1.68-1.5 1.313-4.276 4.394.148 5.754 4.424 1.36 23.746-9.256 20.015 5.525-4.744 8.875-13.307 5.043-14.16 16.32-.236 4.026 2.157 8.297 5.76 9.36 6.617 1.95 14.562-1.118 18.72-2.88 2.003-.85 4.12-1.8 3.12-4.8m37.275.08c-4.417-1.772-17.556 5.32-19.035-.56-.588-2.91 2.693-5.66 4.8-7.2 5.993-3.98 8.686-10.248 7.652-16.57-2.806-12.004-20.33-10.715-26.854-5.51-1.5 1.313-3.857 6.763 1.25 6.49 5.106-.276 22.855-9.333 17.567 6.257-4.744 8.873-12.572 10.43-11.96 15.95-.233 4.03 1.3 7.2 4.906 8.26 6.618 1.95 14.563-1.117 18.72-2.88 2.004-.85 4.12-.82 3.12-3.82m-103.92-19.22c.47-4.3 4.317-6.366 8.4-5.04 2.84.92 5.824 6.003 6.24 10.32.665 6.853-.496 11.163-6 10.32-7-1.075-9.512-7.59-8.64-15.6m-3.87-10.944c-5.197 6.414-6.564 17.814-2.37 25.582 2.19 4.06 6.476 8.315 10.8 9.12 13.073 2.43 18.6-5.645 18.24-17.76-.184-6.25-4.526-13.867-7.92-16.56-4.403-3.497-12.26-4.71-18.75-.384m-24.45 17.662c-.487 3.917-3.602 9.54-9.36 7.68-5.754-1.86-7.24-14.663-7.68-20.88 9.104-2.513 18.128 4.48 17.04 13.2M666.104 39.46c-1.037-4.226-3.985-21.706-8.37-22.353-6.743-.997-4.777 8.682.056 32.28 4.83 23.594 17.55 77.732 23.46 118.44 1.73 4.96 6.965 12.536 12.48 13.2 10.687 1.283 18.903-5.746 21.12-13.2 2.37-7.964-.85-16.49-4.8-20.88-6.293-6.997-22.626-5.516-22.626-5.516m-65.936 3.437c-1.533-5.237-9.346-6.376-17.04-5.76-6.56.52-14.02 4.772-12.24 8.4 3.037 3.923 22.08-7.318 22.576-.953.496 6.366-10.547 13.47-12.975 19.19-2.885 7.75 1.38 14.118 7.893 14.964 3.122.41 5.423.68 10.306-1.76 4.885-2.44 3.86-13.515.76-12.96-2.767.766.317 3.858-2.16 6.96-1.81 2.27-7.754 3.605-9.84 0-2.083-3.602 3.045-10.53 6-13.92 3.43-3.855 7.476-6.592 6.72-14.16m-36.72 53.68c6.75 1.65 9.917-4.203 7.68-10.32-.38-1.05-2.1-2.77-3.12-3.12-5.365-1.84-11.3 2.507-9.12 9.6.365 1.18 1.774 3.16 4.56 3.84m.44-22.953c2.98-1.655.007-11.304-1-17.313-1.03-6.155-2.887-17.99-4.574-18.95-2.738-.993-4.73.1-5.86 2.076-.878 2.187.88 13.65 2.355 20.182 1.59 7.046 1.894 16.82 9.08 14.006m-98.49-9.696c-1.92-3.97-2.642-13.92 3.27-14.426 5.914-.51 13.95 9.164 13.662 16.597-2.406 7.975-12.77 5.428-15.34.525m5.44-24.494c-15.04-.97-17.633 12.427-14.1 22.05 3.214 5.89 5.284 10.17 12.066 12.175 6.83 1.786 15.055 1.77 17.403-2.103 1.11-1.83 2.85-6.08 2.29-9.7-1.27-8.26-5.403-10.82-5.12-21.008 2.87-25.94 8.98-46.947 13.688-70.173 3.11-15.23 4.663-34.35-3.3-48.582-7.966-14.233-16.57-16.464-30.546-19.587-15.92-1.6-37.574 2.048-47.617 6.325-10.044 4.276-30.147 12.39-29.185 17.78.963 5.39 8.5.55 11.13-.55 18.77-8.5 38.07-18.594 61.83-15.05 9.293 1.663 20.37 7.09 24.164 13.28 3.79 6.19 7.04 15.56 6.557 26.32s-2.39 18.032-4.08 27.36c-4.005 20.875-8.934 43.346-11.265 62.57m-66.01 41.59c8.437 9.692 29.374 11.37 33.36-2.16 2.37-6.807 1.05-47.06-3.6-48.48-5.705-1.17-5.32 4.35-5.04 10.32.04 11.353 4.08 38.32-5.533 40.375-2.96.507-5.367-.505-7.426-1.737-19.16-12.545-22.18-38.7-23.164-46.27-2.183-1.26-3.95-1.46-6.097-.06-2.94 1.75 1.91 32.93 4.155 48.37.608 4.18 2.32 11.793 6.094 11.88 5.803-.9.98-19.114.98-19.114m-23.03 9.18c-2.276-1.007-5.328-1.57-6.676 1.552-1.347 3.124 7.747 8.004 8.534 2.91.264-1.72.482-2.713-1.08-3.9m-11.185-52.414c-1.607-2.33-4.807-4.008-5.654 1.352-.845 5.36 6.454 37.884 7.2 41.47.75 3.588 7 5.55 6.94-.35-.055-5.895-7.486-39.03-8.05-41.22m-35.545 47.66c3.922.883 7.026-.18 8.814-1.25 4.515-2.71 7.663-8.95 8.15-16.814.594-6.29-1-27.606-3.99-29.033-8.19-2.366-4.57 17.298-4.4 26.964-.96 7.955-4.792 12.466-12.48 6.847-9.15-6.772-6.963-26.4-10.715-32.277-1.854-2.71-6.934-2.435-8.243 1.08-2.54 4.256 11.71 78.09 18.72 110.64.52 2.342 1.89 7.08 3.84 7.68 8.66 2.66 4.525-11.18 3.557-15.958-3.376-19.706-11.817-61.605-11.817-61.605m-20.254 72.04c-8.827-23.686-19.963-66.29-19.963-66.29s13.828 7.15 19.963 8.69c1.78.446 4.734.58 2.586-4.862-2.147-5.44-23.715-13.02-23.715-13.02s-5.77-16-3.465-26.763c2.366-7.89 17.21-9.073 13.23-13.637-3.98-4.564-19.773 5.478-20.774 11.46-2.25 8.006 1.98 26.937 1.98 26.937s-17.39-5.076-18.233-2.138c-.563 6.5 3.917 7.28 7.092 7.873 3.17.595 12.02 2.63 12.02 2.63s17.82 66.173 23.76 71.76c5.94 5.586 5.92-.5 5.52-2.64m-90.32-70.72c9.703 6.316-1.608-21.58-2.61-28.113-1.004-6.534.034-11.94 8.036-11.26 4.345 1.51 8.138 6.405 10.21 10.78 3.83 7.49 3.55 17.673 7.564 23.813 9.06 3.9 2.016-13.1 1.566-24.26 1.79-14.994 4.414-18.52 7.71-32.755 1.306-5.714 6.694-23.782 6.417-32.325-.277-8.542 1.143-14.272-7.162-25.137-9.36-10.976-29.396-11.03-38.605-9.69-17.563 3.46-38.495 15.397-38.513 30.336.11 10.232 8.25 15 15.59 16.526 7.34 1.527 16.873 1.86 17.24-3.556-5.885-.197-11.913.176-18.765-2.848-6.85-3.023-13.15-11.608-.518-22.882 12.63-11.272 36.066-15.75 51.72-7.502 7.97 3.992 11.634 14.108 11.96 21.952-.92 20.093-8.362 41.05-12.73 59.91 0 0-5.24-6.037-9.8-8.077-3.87-1.733-11.71-3.676-16.986 2.183-5.28 5.86 3.06 37.34 7.63 42.91m-46.796 2.832c4.512 1.917 8.315 2.854 13.62 2.828 4.023-.448 9.68-6.172 8.987-16.744-.52-5.837-3.102-37.92-8.94-37.566-5.84.357-.587 15.325-.155 34.923 1.25 17.32-11.76 10.18-15.04-.37-5.05-11.533-6.25-25.076-9.92-33.713-2.367-1.898-3.675-1.848-5.76.478-1.11 3.06 7.145 29.34 13.102 56.393 1.874 3.004 6.213.656 5.12-2.036m-130.51-3.07c12.9-1.41 23.39.852 35.526 6.986-1.313 14.365 2.717 63.9 2.717 63.9S69.98 203.12 61.36 187.72zm69.732 22.26c6.55 2.37 5.602-4.85-.408-9.5-6.024-5.22-16.51-7.63-20.88-12.96.973-15.016 8.57-26.143 17.9-36.624 9.33-10.48 18.194-7.44 24.074-6.893 5.88.55 9.234-4.805 1.396-6.982-7.84-2.173-16.53-3.29-26.503 3.87-18.973 13.954-28.613 42.18-28.613 42.18s-26.09-6.59-41.95-6.54c-12.76-11.736-30.414-51.03-35.347-41.61-1.467 4.05.525 8.923 21.754 42.995 0 0-15.98 2.19-18.15 6.247-2.98 4.925 2.013 7.245 4.075 7.308 8.42-1.544 20.168-2.986 20.168-2.986 11.445 14.466 71.62 132.353 75.336 127.886 3.42-2.344-13.36-34.753-15.1-53.84-3.51-16.447-4.916-47.85-2.624-62.93" fill-rule="evenodd"/></g></svg>
