<svg xmlns="http://www.w3.org/2000/svg" height="32.646" width="150" version="1"><path fill="none" d="M1.24 3.538h146.466v33.717H1.24z"/><path d="M34.71 2.502c0 .39-.153.748-.456 1.073-.304.325-.64.487-1.007.487-.195 0-.402-.032-.617-.097a5.457 5.457 0 0 1-.52-.18l-.39-.162c-.705 12.252-2.378 21.196-5.022 26.83-.693 1.46-1.516 2.193-2.47 2.193-2.687 0-4.686-5.293-5.995-15.877-1.722 5.123-3.143 8.726-4.258 10.806-1.257 2.36-2.497 3.54-3.72 3.54-.846 0-1.637-.508-2.373-1.525-.704-.974-1.47-2.573-2.29-4.794-1.638-4.442-2.455-11.11-2.455-20.003v-1.17c-.218.022-.505.07-.862.146-.303.065-.52.097-.65.097C.542 3.867 0 3.31 0 2.193 0 .883 1.733.227 5.2.227c1.614 0 2.908.202 3.884.608.975.407 1.462.914 1.462 1.52 0 1.16-.52 1.74-1.56 1.74-.26 0-.655-.076-1.186-.228-.585-.173-1.056-.276-1.414-.31L6.32 7.622c0 8.072 1.344 14.647 4.03 19.727 1.67-2.306 3.565-6.932 5.688-13.876.38-1.234.758-2.756 1.138-4.565.314-1.496.563-2.448.748-2.86.292-.66.72-.99 1.283-.99.79 0 1.306.373 1.544 1.12.163.53.245 1.636.245 3.315 0 .27-.006.594-.016.966l-.017.69c0 6.59 1.077 12.335 3.233 17.242 2.275-5.805 3.716-14.17 4.322-25.09-.162.012-.44.06-.83.147-.324.076-.578.114-.762.114-1.062 0-1.592-.554-1.592-1.66 0-1.267 1.45-1.9 4.355-1.9 1.472 0 2.697.26 3.672.78.897.487 1.347 1.06 1.347 1.722zm17.81 13.44c0 3.184-.933 5.722-2.797 7.61-1.863 1.893-4.35 2.837-7.458 2.837-2.58 0-4.6-.88-6.062-2.642-1.462-1.76-2.193-4.205-2.193-7.336 0-3.292.883-5.85 2.65-7.67 1.73-1.788 4.136-2.682 7.214-2.682 2.577 0 4.663.905 6.256 2.714 1.592 1.81 2.39 4.198 2.39 7.167zm-3.235.03c0-2.176-.528-3.88-1.584-5.11-1.055-1.23-2.5-1.843-4.33-1.843-4.084 0-6.126 2.453-6.126 7.36 0 2.264.444 4.005 1.332 5.224.888 1.22 2.16 1.828 3.818 1.828 2.145 0 3.83-.655 5.055-1.966 1.222-1.31 1.835-3.142 1.835-5.493zm18.54-4.42c0 .413-.123.76-.372 1.04-.25.284-.548.424-.895.424-.26 0-.645-.188-1.154-.57-.51-.377-.97-.567-1.38-.567-1.03 0-1.865.45-2.504 1.355-.64.904-.958 2.126-.958 3.664v2.127c0 2.374-.25 4.26-.748 5.655-.465 1.312-1.067 1.967-1.803 1.967-.985 0-1.477-.488-1.477-1.463 0-.195.15-.914.455-2.154.303-1.24.455-2.406.455-3.5 0-3.034-.434-5.46-1.3-7.28-.022-.055-.32-.602-.894-1.642-.293-.53-.44-.953-.44-1.267 0-.347.167-.67.503-.975.336-.303.7-.455 1.09-.455 1.146 0 2.1 1.408 2.86 4.225 1.125-2.166 2.766-3.25 4.922-3.25 1.083 0 1.96.253 2.632.757.673.503 1.01 1.14 1.01 1.908zM74.78 27.56c0 .738-.048 1.24-.146 1.512-.184.475-.59.715-1.214.715-1.024 0-1.627-.834-1.81-2.504-.313-2.814-.47-6.67-.47-11.568 0-5.47.075-8.834.227-10.09.17-1.376.716-2.064 1.632-2.064 1.078 0 1.617.656 1.617 1.966 0 .326-.06 1.617-.18 3.876-.118 2.258-.178 4.34-.178 6.248 0 1.668.086 3.827.26 6.475.174 2.65.26 4.46.26 5.435zm21.76-24.39c0-.066-.067.747-.197 2.438-.14 1.96-.26 4.046-.357 6.256-.12 3.186-.18 6.577-.18 10.173 0 .738.006 1.493.017 2.266l.016 1.228c0 1.615-.513 2.422-1.536 2.422-1.122 0-1.683-.91-1.683-2.73 0-.423.012-.752.034-.992-2.046 2.015-4.415 3.023-7.11 3.023-2.25 0-4.034-.728-5.35-2.184-1.314-1.457-1.97-3.46-1.97-6.005 0-3.465.955-6.266 2.863-8.4 1.91-2.134 4.413-3.2 7.508-3.2 1.44 0 2.927.33 4.463.99.075-3 .18-4.8.31-5.395.24-1.104.838-1.657 1.795-1.657.918 0 1.376.59 1.376 1.77zm-3.64 8.45c-1.418-.888-2.84-1.333-4.27-1.333-2.206 0-3.947.762-5.224 2.283-1.276 1.522-1.915 3.59-1.915 6.198 0 1.79.43 3.178 1.29 4.17.86.99 2.05 1.486 3.562 1.486 1.904 0 3.354-.634 4.35-1.902.28-.423.556-.85.827-1.284.312-.455.702-.725 1.167-.81 0-3.045.07-5.98.212-8.808zm35.943-6.16c0 .976-.667 1.463-2 1.463.185 0-.996-.145-3.54-.438a75.966 75.966 0 0 0-8.175-.487c.38 1.82.6 4.37.666 7.653.466.022 1.11.032 1.934.032 1.364 0 2.69-.057 3.98-.17 1.29-.114 1.89-.17 1.804-.17 1.224 0 1.836.546 1.836 1.64 0 .953-1.003 1.55-3.006 1.787-.564.066-2.026.098-4.388.098h-2.16c-.077 5.33-.24 8.878-.488 10.644-.325 2.295-.97 3.444-1.934 3.444-1.018 0-1.527-.526-1.527-1.577 0 .357.128-.864.38-3.664.255-2.8.383-5.793.383-8.978 0-4.734-.233-8.217-.7-10.448-1.256.25-2.144.373-2.663.373-1.203 0-1.804-.558-1.804-1.673 0-1.44 3.018-2.16 9.052-2.16 3.878 0 7.187.242 9.93.73 1.614.294 2.42.927 2.42 1.902zm4.6 22.1c0 .738-.05 1.24-.147 1.512-.185.475-.59.715-1.214.715-1.024 0-1.628-.834-1.81-2.504-.314-2.814-.47-6.67-.47-11.568 0-5.47.075-8.834.226-10.09.172-1.376.716-2.064 1.633-2.064 1.08 0 1.62.656 1.62 1.966 0 .326-.06 1.617-.18 3.876-.12 2.258-.18 4.34-.18 6.248 0 1.668.087 3.827.26 6.475.175 2.65.262 4.46.262 5.435zM150 7.084c0 1.365-.553 3.727-1.658 7.085-1.018 3.1-2.85 7.026-5.492 11.78a448.87 448.87 0 0 1-1.61 3.218c-.465.834-1.018 1.25-1.656 1.25-.38 0-.723-.16-1.032-.486-.308-.325-.463-.683-.463-1.073 0-.705.477-1.88 1.432-3.527 2.183-3.81 3.31-5.78 3.387-5.91-2.122-2.855-3.8-5.517-5.032-7.984-.986-1.96-1.478-3.29-1.478-3.98 0-.976.465-1.463 1.398-1.463.585 0 1.172.51 1.757 1.527.53 1.138 1.057 2.275 1.578 3.413a36.367 36.367 0 0 0 3.204 5.544 42.102 42.102 0 0 0 1.917-6.468l.78-3.56c.314-.887.804-1.33 1.466-1.33 1-.003 1.5.65 1.5 1.962z"/></svg>