<svg xmlns="http://www.w3.org/2000/svg" width="1182.72" height="783.36" viewBox="0 0 1182.72 783.36"><g fill-rule="evenodd" clip-rule="evenodd"><path d="M1008.172 344.993c-.54 8.397-1.938 17.403-1.133 26.768.71 8.272 2.23 15.652 11.76 14.16 3.91-.61 10.93-3.68 10.32 2.88-.694 7.462-19.327 6.642-24 3.36-6.83-4.793-7.352-16.164-7.2-26.16.1-6.625 1.193-13.734 1.252-19.757-3.42-.655-8.85.707-8.212-3.283.52-3.248 6.986-2.473 10.024-3.78 2.84-9.43 4.214-16.73 6.313-24.125 1.14-4.017 3.006-8.67 4.563-12.75 3.954-10.37 9.263-19.864 15.25-28.313 3.13-4.417 6.244-10.665 12.09-12.393 7.08-2.093 11.305 2.924 11.52 9.12.285 8.144-3.223 14.35-5.76 21.36-1.503 4.155-3.446 8.547-5.28 12.48-3.842 8.24-7.128 17.173-12 23.76-1.303 1.76-3.237 3.33-4.8 5.04-4.344 4.752-9.232 8.237-14.708 11.633zm12.788-23.633c1.014-1.695 2.608-2.992 3.6-4.56 1.778-2.812 3.13-6.687 4.8-10.08 1.704-3.46 3.92-6.505 5.28-9.84 1.413-3.464 2.747-7.16 4.08-10.8 1.403-3.832 3.516-8.14 3.84-11.28.178-1.72-.15-6.643-2.16-5.52-4.96 2.77-7.364 8.918-10.56 14.4-2.113 3.625-4.42 8.402-6.96 12.72-2.32 3.947-4.596 9.004-6 13.68-1.574 5.24-3.69 10.447-4.8 14.88-.905 3.613-1.72 6.323-1.92 9.36 5.426-1.826 8.077-8.408 10.8-12.96z"/><path fill="none" d="M1010.16 334.32c.2-3.038 1.016-5.747 1.92-9.36 1.11-4.433 3.227-9.64 4.8-14.88 1.405-4.676 3.632-10.455 5.73-14.525 2.47-4.79 4.574-8.5 6.688-12.125 3.195-5.48 6.144-11.38 11.103-14.15 2.012-1.123 2.34 3.8 2.16 5.52-.323 3.14-2.436 7.448-3.84 11.28-1.332 3.64-2.666 7.336-4.08 10.8-1.36 3.334-2.45 6.964-4.154 10.425-1.67 3.394-2.783 5.814-4.875 9.563-1.13 2.028-2.61 4.243-3.624 5.938-2.725 4.55-6.4 9.688-11.826 11.514z"/></g><g fill-rule="evenodd" clip-rule="evenodd"><path d="M1041.36 371.783c-.047-1.313-2.083-.637-2.16-1.92-.18-1.7.27-2.772.48-4.08.48-.802 2.107-.132 2.68-.84 1.49-4.794 2.93-12.366 6.68-16.2 1.877-1.918 4.945-4.862 8.445-5.362 4.674-.667 9.75-.13 11.715 5.124.723 4.69.098 7.065-1.465 11.252-1.728 4.63-4.36 9.262-8.438 10.563-4.313 1.374-10.438-.876-10.938 3.5-.612 5.35 10.874 9.516 15.374 9 6.114-.703 11.315-4.098 15.688-7.564 2.836-2.248 5.743-5.192 8.063-7.313 3.168-2.896 4.77-5.115 8.375-7.813 1.6-1.198 4.63-.992 5.625.875.92 1.722-.095 4.074-1.5 5.862-2.97 3.777-4.872 5.897-8.5 8.888-3.535 2.915-6.438 5.688-10.524 8.268-6.802 4.294-20.882 7.196-30.223 2.97-2.04-.924-4.55-2.845-5.752-4.188-2.197-2.45-3.967-5.57-3.625-11.022zm16.437-21.73c-4.09 1.08-10 12.703-7.797 15.25 9.672 3.765 14.922-13.485 12.484-14.672-1.097-.557-1.433-1.437-4.687-.577z"/><path fill="none" d="M1061.04 350.16c.21 7.6-2.666 17.36-11.43 15.195-.946-5.668 5.25-12.878 8.79-15.195.65-.425 1.542-.557 2.64 0z"/></g><g fill-rule="evenodd" clip-rule="evenodd"><path d="M976.56 261.36c.487 1.195-4.005 31.773-7.68 46.8-1.824 7.455-2.987 15.026-4.56 22.56-1.572 7.52-3.48 15.862-3.648 23.772 2.39.295 4.25-.35 6.527-.252 5.738.247 12.45 3.476 14.398 7.44 2.124 4.32 1.278 12.25-.48 16.8-.315.818-.62 1.83-.946 2.637-.422 1.046-.836 1.907-1.213 2.643-.325.632-.792 1.446-1.288 2.232-.57.904-1.222 1.668-1.593 2.088-1.772 2.005-5.97 4.912-10.32 5.52-7.797 1.09-16.07-2.417-17.76-8.16-.96-3.26-.662-8.23-.24-11.76 1.14-9.562 3.9-19.105 5.52-28.8 1.606-9.627 3.742-19.24 5.52-28.8 1.752-9.422 4.13-18.853 6.24-28.08 2.147-9.386 4.84-27.14 6.635-28.098 2.026-1.468 4.06-.642 4.884 1.458zm-16.32 101.28c-5.176 3.935-5.386 22.797 1.44 24.48.93.23 3.602-.044 4.32-.24 2.002-.543 5.933-3.723 6.96-5.76.433-.858 1.215-3.57 1.68-5.76 1.977-9.31.138-15.28-10.08-13.92-2.006.268-3.216.36-4.32 1.2z"/><path fill="none" d="M964.56 361.44c10.218-1.362 12.057 4.61 10.08 13.92-.465 2.19-1.247 4.9-1.68 5.76-1.027 2.036-4.958 5.216-6.96 5.76-.72.195-3.39.47-4.32.24-6.826-1.684-6.616-20.546-1.44-24.48 1.104-.84 2.314-.932 4.32-1.2z"/></g><g fill-rule="evenodd" clip-rule="evenodd"><path d="M939.135 350.772c-2.123 1.364-5.812 2.36-8.4.72-3.142-4.904-1.307-13.02 6.72-11.04 3.345 1.308 3.984 7.298 1.68 10.32zM923.922 389.618c-.785-2.313 1.03-14.504 2.958-21.938.916-3.536 1.528-9.688 4.08-10.8 6.53-2.846 4.448 6.83 3.6 11.04-.612 3.038-1.51 7.427-2.033 10.427-.672 3.845-.937 9.858-3.007 11.893-1.574 1.547-4.604.955-5.598-.622z"/></g><path fill-rule="evenodd" clip-rule="evenodd" d="M876.96 357.6c-3.448 1.682-8.646-1.634-12.72-2.16-3.07-.396-6.033-.058-6.48 2.16-.588 2.91 2.693 5.66 4.8 7.2 2.36 1.726 5.043 3.62 6.48 5.52 1.76 2.324 3.474 6.003 2.64 10.56-.433 2.366-2.77 6.16-5.04 7.68-5.46 3.656-18.77 2.27-23.28-1.68-1.5-1.314-2.678-4-1.2-6 6.002-1.545 12.027 4.108 18.72 1.92 2.214-.723 3.903-3.63 2.64-7.2-1.652-4.674-9.812-5.838-12.478-10.8-.735-1.367-1.595-4.054-1.68-5.52-.236-4.027 2.156-8.298 5.76-9.36 6.617-1.95 14.562 1.117 18.72 2.88 2 .85 4.12 1.8 3.118 4.8z"/><path fill-rule="evenodd" clip-rule="evenodd" d="M914.4 358.08c-3.448 1.682-8.646-1.634-12.72-2.16-3.07-.396-6.033-.058-6.48 2.16-.588 2.91 2.693 5.66 4.8 7.2 2.36 1.727 5.043 3.62 6.48 5.52 1.76 2.324 3.474 6.003 2.64 10.56-.433 2.366-2.77 6.16-5.04 7.68-5.46 3.657-18.77 2.27-23.28-1.68-1.5-1.314-2.678-4-1.2-6 6.002-1.545 12.027 4.107 18.72 1.92 2.214-.723 3.903-3.63 2.64-7.2-1.652-4.674-9.812-5.838-12.478-10.8-.735-1.367-1.595-4.054-1.68-5.52-.236-4.027 2.156-8.298 5.76-9.36 6.617-1.95 14.562 1.117 18.72 2.88 2 .85 4.12 1.8 3.118 4.8z"/><g fill-rule="evenodd" clip-rule="evenodd"><path d="M806.61 387.264c-5.198-6.415-6.564-17.815-2.37-25.583 2.19-4.058 6.476-8.315 10.8-9.12 13.072-2.43 18.6 5.646 18.24 17.76-.185 6.25-4.526 13.867-7.92 16.56-4.404 3.496-12.262 4.71-18.75.384zm3.87-10.944c.47 4.298 4.316 6.365 8.4 5.04 2.84-.922 5.822-6.004 6.24-10.32.663-6.854-.498-11.164-6-10.32-7.002 1.074-9.513 7.588-8.64 15.6z"/><path fill="none" d="M819.12 360.72c5.503-.844 6.664 3.466 6 10.32-.417 4.316-3.398 9.398-6.24 10.32-4.083 1.325-7.93-.742-8.4-5.04-.873-8.012 1.638-14.526 8.64-15.6z"/></g><g fill-rule="evenodd" clip-rule="evenodd"><path d="M762.86 390.96c-3.294 16.08-7.41 35.946-10.46 52.56-1.28 6.972-2.016 14.073-3.6 20.88-1.26 5.41-2.145 8.754-3.565 16.343-.533 2.843-2.1 8.485-2.675 11.018-.53 2.337-.918 4.62-1.513 7.046-1.036 4.226-1.78 15.588-6.168 16.235-6.743.996-3.582-10.164-2.88-13.68.86-4.31 2.645-11.453 3.6-15.84 3.893-17.88 8.26-39.214 10.947-55.84.765-4.73 1.594-8.126 2.732-14 1.83-9.442 3.492-18.85 5.04-28.32 1.274-7.81 1.71-16.243 4.08-23.04 1.727-4.96 6.963-12.537 12.478-13.2 10.687-1.284 18.902 5.745 21.12 13.2 2.37 7.962-.85 16.49-4.8 20.88-6.292 6.996-14.022 5.008-24.338 5.76zm19.3-21.36c-.488-3.918-4.92-8.2-9.36-7.68-3.648.426-4.617 4.405-5.52 7.92-1.08 4.21-1.882 8.752-2.16 12.96 9.103 2.513 18.127-4.48 17.04-13.2z"/><path fill="none" d="M765.12 382.8c.278-4.208 1.08-8.75 2.16-12.96.902-3.515 1.87-7.494 5.52-7.92 4.44-.52 8.872 3.762 9.36 7.68 1.087 8.72-7.937 15.713-17.04 13.2z"/></g><path fill-rule="evenodd" clip-rule="evenodd" d="M698.64 387.28c-1.534 5.236-9.347 6.375-17.04 5.76-6.563-.522-13.257-2.938-12.24-8.4 3.703-1.873 5.974 2.183 10.32 2.88 2.574.415 10.697.884 11.52-1.44.72-2.03-.233-3.953-1.652-6.025-2.65-3.873-4.195-5.012-7.125-8.875-1.253-1.653-2.862-3.166-3.463-4.78-2.886-7.747 2.847-14.513 9.36-15.36 3.123-.405 7.042.886 9.36 2.16 2.117 1.167 3.297 3.593 3.6 4.8.492 1.97.043 9.1-3.36 8.16-2.132-.588.315-3.855-2.16-6.96-1.812-2.27-8.075-2.258-9.84 0-2.815 3.606.784 7.06 2.64 9.36 1.178 1.46 2.22 3.277 3.36 4.56 3.428 3.858 7.474 6.595 6.72 14.16z"/><g fill-rule="evenodd" clip-rule="evenodd"><path d="M661.92 333.6c6.747-1.647 9.915 4.205 7.68 10.32-.383 1.05-2.102 2.77-3.12 3.12-5.366 1.842-11.3-2.505-9.12-9.6.363-1.18 1.772-3.16 4.56-3.84zM662.36 356.555c2.98 1.655.006 11.304-1 17.313-1.03 6.156-2.888 17.99-4.575 18.95-2.737.994-4.73-.1-5.862-2.075-.875-2.188.884-13.65 2.357-20.183 1.59-7.045 1.892-16.817 9.08-14.005z"/></g><g fill-rule="evenodd" clip-rule="evenodd"><path d="M574.08 389.52c-6.695 1.186-10.72-.912-14.16-5.04-3.442-4.13-6.042-10.754-3.12-18.48 1.206-3.188 4.786-8.017 7.44-10.56 1.736-1.663 5.53-4.54 7.44-5.04 6.83-1.786 14.933 1.167 17.28 5.04 1.11 1.83 2.236 6.94 1.68 10.56-1.27 8.258-7.487 10.452-7.2 20.64.094 3.34.808 7.23 1.44 10.8 1.728 9.76 3.25 20.78 5.52 30.72.766 3.355.958 6.663 1.772 10.06 1.625 6.773 3.372 13.268 4.707 19.94 1.595 7.972 3.847 18.96 2.64 29.52-.207 1.813-.745 4.258-1.223 6.376-.784 3.474-1.95 5.89-3.098 8.745-3.84 6.13-7.08 10.708-12.96 14.64-2.568 1.718-5.732 3.533-9.13 4.93-3.397 1.394-6.777 2.814-9.83 3.472-5.7 1.227-13.066.626-19.44.24-6.96-.422-13.246-2.032-18.24-3.6-1.627-.512-2.904-1.194-4.554-1.863-1.298-.526-1.298-.526-4.688-2.25-1.344-.685-3.105-1.296-4.563-2.126-1.887-1.073-3.558-1.906-5.813-2.813-2.586-1.038-4.375-2.062-7.313-3.5-3.315-1.62-13.25-4.478-12.193-9.05.95-4.11 8.5-.55 11.13.55 1.858.778 4.186 1.84 6.15 2.81 1.936.957 3.997 1.613 6.1 2.566 4 1.813 8.07 2.978 12.5 4.938 2.53 1.12 5 2.092 7.8 2.817 2.823.732 5.732 1.507 8.88 1.68 6.272.35 14.104 1.185 20.4.24 4.677-.7 9.122-1.983 12.607-4.8 3.25-2.624 4.08-3.457 5.313-4.5 1.237-1.045.91-1.03 3.063-3 1.656-1.514 3.014-3.31 3.737-4.5 1.562-2.564 3.222-7.294 4.08-10.32 1.127-3.972 1.616-8.39 1.92-12.478.753-10.13-2.39-18.033-4.08-27.36-.3-1.648-.715-3.06-1.033-4.652-.25-1.248-.658-2.8-.888-3.987-.41-2.128-1.134-4.11-1.44-6.24-.92-6.394-2.308-12.856-3.61-19.21-.906-4.418-1.63-8.73-2.39-13.19-.705-4.168-1.175-8.552-2.636-12.723zm-9.6-23.76c-1.92 3.973-1.746 12.115 1.68 12.96 4.61 1.137 10.26-2.532 12.24-6.24 1.016-1.9 2.576-5.53 2.4-8.4-.246-4.02-3.767-4.796-7.68-4.08-2.973.544-7.272 2.93-8.64 5.76z"/><path fill="none" d="M573.12 360c3.914-.716 7.434.06 7.68 4.08.176 2.87-1.384 6.5-2.4 8.4-1.98 3.708-7.63 7.377-12.24 6.24-3.426-.845-3.6-8.987-1.68-12.96 1.368-2.83 5.667-5.216 8.64-5.76z"/></g><path fill-rule="evenodd" clip-rule="evenodd" d="M503.047 353.618c2.438-3.375 4.007-6.25 5.752-8.257 8.434-9.69 29.372-11.368 33.36 2.16.906 3.08.353 8.447.24 13.2-.102 4.215-.152 8.51-.24 12.72-.183 8.615.977 21.678-3.6 22.56-5.708 1.17-5.323-4.348-5.04-10.32.373-7.916 1.117-14.853.72-23.28-.396-8.357.907-15.862-6.256-17.094-2.958-.51-5.366.503-7.425 1.735-4.526 2.708-10.25 9.67-12.72 15.12-1.142 2.52-2.793 4.128-3.918 7.188-1.108 3.01-2.473 7.857-2.875 10.583-.773 5.24-.813 9.142-2.875 13.376-2.182 1.26-4.73 1.463-6.875.063-2.938-1.75 2.775-34.486 5.022-49.928.607-4.18 1.452-10.234 5.227-10.323 5.806-.138 1.188 15.498 1.5 20.498z"/><g fill-rule="evenodd" clip-rule="evenodd"><path d="M479.672 343.055c-2.276 1.004-5.263.67-6.632-.69-2.646-7.51 8.094-8.694 8.88-3.6.265 1.72-.685 3.103-2.248 4.29zM469.44 394.56c-2.56.08-4.518-.442-6-1.44-2.893-2.502 2.485-21.646 4.56-31.44.688-3.247.97-7.788 2.64-9.6 2.137-2.317 7.26-1.784 7.72.35.498 2.31-.955 9.476-.76 8.29.47-2.86-.85 5.707-1.44 8.16-1.795 7.482-2.628 13.954-4.08 19.68-.68 2.678-.44 4.86-2.64 6z"/></g><path fill-rule="evenodd" clip-rule="evenodd" d="M428.11 348.743c2.688-1.5 3.622-2.125 5.875-2.75 3.187-.884 7.025.178 8.813 1.25 4.517 2.71 7.665 8.95 8.152 16.813.115 1.86.44 4.323.49 6.265.215 8.257-.234 22.144-2.887 22.894-1.98.393-3.948.693-5.034-.572-1.62-1.89-.72-10.287-.72-13.44 0-4.91.246-9.727-.24-13.44-.32-2.426-1.207-6.77-2.64-7.92-2.848-2.284-8.067.085-9.84 1.44-6.32 4.828-7.096 18.838-8.16 28.8-.143 1.33-.207 2.85-.72 3.6-1.856 2.71-9.262.723-10.08-1.2-1.083-2.54.556-9.528.96-13.68.354-3.655 1.017-7.82 1.717-11.87.74-4.273 1.184-8.49 1.882-12.37 1.304-7.255 2.346-14.228 3.84-22.32 1.586-8.603 3.11-15.003 4.56-21.6 1.898-8.645 3.648-19.26 5.76-28.8.517-2.342 1.887-7.08 3.84-7.68 8.66-2.658 4.522 11.18 3.554 15.958-1.093 5.39-1.485 8.252-2.688 13.938-1.61 10.382-5.624 31.255-6.436 46.685z"/><path fill-rule="evenodd" clip-rule="evenodd" d="M405.165 277.68c-.312 7.107-2.303 12.764-4.08 18.96-2.706 9.432-4.683 19.107-6.96 29.04-1.107 4.83-3.078 11.76-4.078 17.25 4.625-2.188 8.983-6.11 15.118-7.65 1.776-.446 4.986 1.493 5.007 3.65.043 4.35-10.24 8.637-13.813 10.375-4.066 1.978-7.326 3.732-11.116 5.415-.84 4.202-1.648 8.337-1.92 12.72-.246 3.962-.494 8.937.72 12.72.716 2.232 3 4.575 4.8 5.76 3.25 2.14 6.877 2.2 4.78 7.988-5.318 2.473-11.64.21-16.06-2.468-7.103-6.323-7.244-23.344-4.64-34.198-6.5 1-15.312 3-16.156.063-.563-6.5 3.763-6.588 7.093-7.875 1.26-.486 5.273-1.316 6.983-1.67 1.827-.378 4.322-.21 5.04-.96 1.788-1.87 1.163-2.683 2.4-5.52.834-6.548 2.387-13.663 4.56-21.36 1.94-6.87 3.757-13.955 5.76-20.16 1.782-5.523 3.127-11.578 5.04-17.04 1.237-3.533 2.117-7.102 6-7.68 3.063-.456 4.106 1.02 5.522 2.64z"/><path fill-rule="evenodd" clip-rule="evenodd" d="M318.422 350.368c.066 10.21-4.293 19.295-5.942 28.593-.353 1.99-.35 5.124.72 6 1.33 1.09 5.54.662 7.44 0 4.346-1.51 7.77-3.59 9.845-7.967.725-1.53 1.58-4.77 2.125-6.25 2.084-5.654 2.417-13.207 5.438-17.563 1.818-2.624 2.685-3.15 5.873-2.3 4.68 6.25.365 12.385-.48 20.16-.463 4.277-.908 9.24-.48 14.16.332 3.796 1.802 8.295 2.65 13.042.395 2.2.916 4.1 1.43 6.157 1.255 5.01 3.12 11.31 4.32 16.56 1.308 5.714 2.37 10.8 3.36 17.52 1.1 7.458 1.02 15.202-1.44 21.84-.826 2.232-1.684 5.063-2.88 6.72-1.42 1.972-2.99 3.463-5.29 5.266-5.157 4.045-10.866 5.926-20.39 6.255-4.318.15-9.388.242-13.2-.478-2.016-.382-4.406-.674-6.972-1.275-2.69-.633-5.803-1.43-8-2.063-1.287-.37-2.28-.803-3.375-1.188-1.314-.463-2.223-1.054-3.252-1.475-2.464-1.01-4.737-2.437-6.934-3.712-1.1-.64-2.145-1.222-3.145-1.808-1.174-.688-3.228-2.13-4.916-3.442-4.426-3.442-10.994-7.47-8.522-16.718.563-2.104 2.776-6.415 4.585-8.595 1.767-2.128 5.266-4.655 7.415-6.045 1.848-1.195 6.98-2.924 10.32-3.6 4.197-.85 12.59.342 12.96 5.76-5.888.195-12.096 1.5-16.32 4.56-3.57 2.587-7.887 7.73-5.28 14.16.752 1.856 1.657 3.82 3.905 5.54 3.292 2.52 5.88 3.984 9.625 6.063 1.216.675 3.084 1.7 3.99 2.077 2.3.958 7.367 2.217 9.84 2.64 7.256 1.244 19.047.855 24.72-1.44 5.013-2.026 6.966-5.745 8.64-7.92 2.343-3.04 5.158-9.158 5.28-14.398.06-2.58-.223-6.384-.48-9.6-.2-2.525-.753-4.956-1.24-7.483-.296-1.54-.99-2.688-1.313-4.064-.286-1.218-.69-2.628-1.048-3.814-1.788-5.92-2.902-11.986-4.32-18-.59-2.5-1.14-4.82-1.695-7.44-.55-2.585-.834-5.402-2.145-7.92-3.105-1.825-5.733 4.447-10.292 6.487-3.87 1.73-14.17 1.484-16.375-2.064-5.313-8.813.876-23.687 3.147-33.705.87-3.83.875-7.537 4.207-8.544 1.482-.45 3.205-.328 3.892 1.312z"/><path fill-rule="evenodd" clip-rule="evenodd" d="M268.08 336.92c1.338 2.397-.772 6.187.48 8.4 2.688.187 3.227-2.166 5.04-3.12 2.1-1.106 5.717-2.467 8.64-2.4 8.795.203 10.293 9.108 9.6 19.68-.396 6.043-1.404 13.703-2.16 19.68-.822 6.5-1.653 17.02-3.6 17.76-4.385 1.424-6.303.01-7.2-4.32.278-10.1 1.937-20.167 2.64-30.48.213-3.134 1.18-7.125-1.68-8.88-6.34-.757-8.813 4.75-11.28 8.88-1.97 3.297-2.906 7.127-4.32 12-.43 1.48-.918 2.5-1.45 3.977-.488 1.354-.934 4.027-1.346 5.357-1.486 4.793-1.915 9.182-4.883 12.746-2.366 1.897-3.2 1.647-5.76-.48-.055-3.54 1.848-11.744 3.145-16.767 1.313-5.084 1.95-8.61 3.336-13.713 1.696-6.24 2.763-12.832 4.08-19.144.662-3.165 1.084-7.973 2.4-9.176 2.12-1.656 3.516-1.406 4.32 0z"/><g fill-rule="evenodd" clip-rule="evenodd"><path d="M183.026 331.18c5.88-1.386 10.008-5.056 14.494-7.9 3.215-2.04 6.578-4.612 11.34-4.037 2.863 1.522 4.947 2.857 4.5 6.677-.244 2.088-3.354 4.07-5.52 5.76-2.395 1.868-4.852 3.044-6.96 4.32-5.424 3.283-11.054 4.947-13.92 8.64-.55 5.448 1.055 9.104 2.4 12.79.717 1.964 1.44 3.588 2.16 5.45.736 1.9 2.628 4.352 4.08 6.72 2.77 4.52 5.64 7.7 9.26 11.664 1.89 2.07 3.943 3.818 5.86 4.896 5.61 3.155 17.8 3.68 24.96.96 2.452-.932 4.4-2.878 6.96-2.88 4.457 1.778.645 6.225-2.03 8.357-2.03 1.618-4.534 2.698-6.61 3.643-2.15.98-4.222 1.464-6.974 2.023-1.087.22-3.482.505-4.066.617-3.363.646-9.037.498-11.76-.24-1.057-.286-1.91-.676-3.09-1.127-.982-.376-1.785-.874-2.67-1.273-6.034-2.726-8.033-5.815-12.664-10.56-2.434-2.493-6.002-6.912-7.497-9.6-.722-1.297-1.885-3.048-2.494-4.537-.847-2.07-1.61-4.09-2.646-7.513-.894-2.657-.59-1.757-1.1-3.31-1.348-4.106-2.11-9.09-4.56-12.24-5.288.797-8.912 3.58-13.823 5.094-2.378.733-1.673.356-6.61 1.793 0 0-5.626.938-7.75 1.063-5.123.3-12.497.375-15.74 2.85-3.074 2.525-4.574 4.545-7.574 8.588-1.408 1.897-3.045 3.925-4.563 5.5-2.028 2.104-3.996 4.218-6.343 6.552-1.082 1.077-2.19 2.134-3.36 3.12-1.215 1.023-2.737 2.095-4.026 3.015-2.066 1.476-3.728 3.034-5.573 4.425-1.383 1.043-5.44 3.88-7.2 4.56-1.51.585-3.946 1.175-5.04.96-1.33-.26-3.61-1.86-3.6-4.32.01-2.397 3.065-4.012 4.32-5.04 3.11-2.546 6.873-5.34 9.552-7.792 1.226-1.122 3.224-3.182 4.847-5.167 3.26-3.987 5.017-6.285 8.64-10.8.93-1.157 4.168-4.5 4.08-5.52-.143-1.656-2.268-2.297-3.922-3.116-1.312-.65-8.063-3.438-9.277-6.243-1.39-3.21 1.277-6.63 3.34-6.694 5.688-.948 9.875.25 14.5 1.375 2.977.4 4.063.814 6.4 1 2.708-2.57 5.035-5.447 7.1-9 3.692-4.19 5.675-8.684 8.5-13.32 3.017-4.95 7.157-10.232 9.875-15.574 2.405-4.727 5.053-8.657 7.885-13.225 1.083-1.745 2.43-3.775 3.428-5.63 1.296-2.407 2.597-4.464 4.012-7.09 2.643-4.9 4.67-10.382 6.96-15.6 1.147-2.61 2.32-5.33 3.215-7.746 1.55-4.19 2.77-8.205 4.465-12.173 1.133-2.654 2.127-4.95 3.035-7.64.393-1.163 1.098-2.553 1.525-3.64 1.923-4.893 4.414-9.155 6.913-13.484.627-1.085 1.023-2.07 1.73-3.075 1.307-1.862 6.35-6.854 7.92-2.4.4 1.14-.118 5.106-.48 7.68-.345 2.436-1.345 4.76-1.98 7.108-.504 1.857-1.007 3.57-1.62 5.372-2.864 8.41-4.88 15.128-7.92 25.92-1.548 5.492-3.79 11.972-5.04 18.72-.256 1.377-.86 3.287-1.046 4.675-.354 2.624-1.035 4.774-1.355 7.565-.135 1.168-.544 2.885-.646 4.123-.28 3.372-.73 6.296-1.035 9.797-.323 3.69-.327 8.293-.24 12.24.102 4.723.478 10.698 2.066 13.9zM171.6 290.64c-2.297 1.862-2.57 4.346-4.24 7.165-1.472 3.478-3.128 5.84-4.4 8.435-.936 1.91-1.502 3.306-2.6 5.128-1.13 1.875-2.216 3.436-3.16 5.672-1.627 3.854-4.164 9.88-2.16 6 1.335-2.584-3.35 4.855-4.8 7.44-1.496 2.664-3.015 5.32-4.32 8.16-1.83 2.01-4.02 3.66-5.04 6.48 2.045.84 4.63.56 6.96 0 3.22-.774 7.115-2.11 10.8-3.12 4.238-1.163 10.513-2.984 13.2-5.28 1.21-4.084-.19-7.807-.48-11.28-1.01-12.056 2.28-23.68.96-34.8h-.72z"/><path fill="none" d="M171.84 290.64h.48c1.32 11.12-1.97 22.744-.96 34.8.29 3.473 1.69 7.196.48 11.28-2.688 2.296-8.962 4.117-13.2 5.28-3.685 1.01-7.58 2.346-10.8 3.12-2.33.56-4.915.84-6.96 0 2.063-3.44 2.4-4.93 4.23-6.94 2-2.833 3.634-5.037 5.13-7.7 1.452-2.585 2.91-5.09 4.245-7.675.957-1.854 2.137-3.442 3.042-5.375.745-1.59 1.93-3.602 3.033-5.43 1.098-1.822 1.464-3.85 2.4-5.76 1.272-2.596 2.916-5.334 4.4-8.435 1.414-2.885 1.942-5.303 4.24-7.165h.24z"/></g></svg>
