<svg xmlns="http://www.w3.org/2000/svg" width="1182.72" height="783.36" viewBox="0 0 1182.72 783.36"><g fill-rule="evenodd" clip-rule="evenodd"><path fill="#fff" d="M998.412 78.89h62.64v135.36h-62.88V79.61c-.02-.34-.04-.68.24-.72zm34.08 72.72c1.562-1.71 3.496-3.278 4.8-5.04 4.87-6.586 7.897-15.733 12-23.76 1.975-3.863 3.776-8.324 5.28-12.48 2.536-7.01 6.044-13.215 5.76-21.36-.216-6.195-4.44-11.212-11.52-9.12-5.847 1.728-8.87 8.543-12 12.96-5.988 8.448-11.166 17.71-15.12 28.08-1.557 4.08-3.857 8.074-5.28 12-2.832 7.812-2.903 17.46-6.48 24.48-3.038 1.307-8.84.592-9.36 3.84-.638 3.99 4.02 3.425 7.44 4.08-.06 6.023-.96 12.627-.48 18.96.757 9.97.37 21.366 7.2 26.16 4.674 3.28 23.307 4.102 24-3.36.61-6.56-6.41-3.49-10.32-2.88-9.527 1.493-11.048-5.887-11.76-14.16-.805-9.363.422-17.282.96-25.68 5.475-3.396 10.535-7.968 14.88-12.72z"/><path d="M1008.172 344.993c-.54 8.397-1.938 17.403-1.133 26.768.71 8.274 2.23 15.654 11.76 14.16 3.91-.61 10.93-3.68 10.32 2.88-.696 7.464-19.33 6.644-24 3.36-6.83-4.79-7.354-16.162-7.2-26.16.1-6.623 1.19-13.732 1.25-19.755-3.42-.655-8.85.707-8.21-3.283.52-3.247 6.984-2.472 10.022-3.78 2.84-9.43 4.214-16.73 6.313-24.124 1.14-4.017 3.006-8.67 4.563-12.75 3.953-10.37 9.262-19.864 15.25-28.313 3.13-4.417 6.243-10.665 12.09-12.393 7.08-2.093 11.304 2.924 11.52 9.12.284 8.144-3.224 14.35-5.76 21.36-1.504 4.155-3.447 8.547-5.28 12.48-3.843 8.24-7.13 17.173-12 23.76-1.304 1.76-3.238 3.33-4.8 5.04-4.345 4.752-9.233 8.237-14.71 11.633zm12.788-23.633c1.014-1.695 2.608-2.992 3.6-4.56 1.778-2.812 3.13-6.687 4.8-10.08 1.704-3.46 3.92-6.505 5.28-9.84 1.413-3.464 2.747-7.16 4.08-10.8 1.403-3.832 3.516-8.14 3.84-11.28.178-1.72-.15-6.643-2.16-5.52-4.96 2.77-7.364 8.918-10.56 14.4-2.113 3.625-4.42 8.402-6.96 12.72-2.32 3.947-4.596 9.004-6 13.68-1.574 5.24-3.69 10.447-4.8 14.88-.905 3.613-1.72 6.323-1.92 9.36 5.426-1.826 8.077-8.408 10.8-12.96z"/><path fill="#fff" d="M1010.16 334.32c.2-3.038 1.016-5.747 1.92-9.36 1.11-4.433 3.227-9.64 4.8-14.88 1.405-4.676 3.632-10.455 5.73-14.525 2.47-4.79 4.574-8.5 6.688-12.125 3.195-5.48 6.144-11.38 11.103-14.15 2.014-1.123 2.34 3.8 2.16 5.52-.32 3.14-2.434 7.448-3.84 11.28-1.33 3.64-2.664 7.336-4.08 10.8-1.36 3.334-2.45 6.964-4.152 10.425-1.67 3.394-2.783 5.814-4.875 9.563-1.13 2.028-2.61 4.243-3.624 5.938-2.726 4.55-6.4 9.688-11.827 11.514z"/></g><g fill-rule="evenodd" clip-rule="evenodd"><path fill="#fff" d="M1078.01 179.48h69.36v48.24h-69.6V180.2c-.02-.342-.04-.68.24-.72zm6.96 41.52c1.202 1.34 3.96 3.155 6 4.08 9.34 4.225 23.804 1.464 30.24-3.36 2.937-2.204 6.544-5.486 10.08-8.4 3.627-2.99 7.547-5.462 9.84-8.88 1.267-1.89 3.08-5.72 2.16-7.44-.997-1.868-5.662-1.395-7.44-.48-3.504 1.8-5.712 5.263-8.88 8.16-2.32 2.12-5.564 4.23-8.4 6.48-4.372 3.465-7.806 6.017-13.92 6.72-4.5.516-15.88-1.68-13.44-6.48.725-1.425 7.063-1.11 9.36-2.4 3.73-2.1 5.524-6.793 6.96-11.52 1.107-3.647 2.132-6.878 1.92-11.28-1.342-3.895-6.594-6.104-11.28-5.52-1.894.234-7.003 3.84-8.88 5.76-3.75 3.833-5.23 11.045-6.72 15.84-.572.707-2.16.397-2.64 1.2-.212 1.307-.66 2.38-.48 4.08.077 1.282 2.113.606 2.16 1.92-.342 5.45 1.163 9.067 3.36 11.52z"/><path d="M1041.36 371.783c-.047-1.313-2.083-.637-2.16-1.92-.18-1.7.27-2.772.48-4.08.48-.802 2.107-.132 2.68-.84 1.49-4.794 2.93-12.366 6.68-16.2 1.877-1.918 4.945-4.862 8.445-5.362 4.674-.665 9.75-.13 11.715 5.126.723 4.69.098 7.065-1.465 11.252-1.728 4.63-4.36 9.262-8.438 10.563-4.313 1.375-10.438-.875-10.938 3.5-.614 5.35 10.872 9.517 15.372 9 6.114-.702 11.315-4.097 15.688-7.563 2.837-2.248 5.744-5.192 8.064-7.313 3.168-2.896 4.77-5.115 8.375-7.813 1.6-1.197 4.63-.99 5.623.876.92 1.722-.095 4.074-1.5 5.862-2.97 3.777-4.872 5.897-8.5 8.888-3.535 2.915-6.438 5.688-10.524 8.268-6.803 4.294-20.883 7.196-30.224 2.97-2.04-.924-4.55-2.845-5.752-4.188-2.197-2.45-3.967-5.57-3.625-11.022zm16.437-21.73c-4.09 1.08-10 12.703-7.797 15.25 9.672 3.765 14.922-13.485 12.484-14.672-1.097-.555-1.433-1.435-4.687-.575z"/><path fill="#fff" d="M1061.04 350.16c.21 7.6-2.666 17.36-11.43 15.195-.946-5.668 5.25-12.878 8.79-15.195.65-.425 1.542-.557 2.64 0z"/></g><g fill-rule="evenodd" clip-rule="evenodd"><path fill="#fff" d="M925.613 104.867h36v135.36h-36.24v-134.64c-.02-.34-.04-.68.24-.72zm24 1.2c-2.52 9.11-4.093 18.454-6.24 27.84-2.11 9.228-4.488 18.658-6.24 28.08-1.777 9.56-3.913 19.173-5.52 28.8-1.62 9.695-4.38 19.24-5.52 28.8-.422 3.53-.72 8.5.24 11.76 1.688 5.743 9.99 9.435 17.76 8.16 3.252-.534 8.55-3.514 10.32-5.52.37-.42.628-1.496 1.2-2.4.495-.787 1.354-1.288 1.68-1.92.376-.736.297-1.833.72-2.88.325-.807 1.123-1.582 1.44-2.4 1.757-4.548 2.603-12.48.478-16.8-1.945-3.964-8.66-7.194-14.396-7.44-2.278-.098-4.536 1.16-6.48-.48.17-7.91 2.03-15.52 3.6-23.04 1.574-7.534 2.737-15.104 4.56-22.56 3.677-15.027 5.035-30.654 7.68-46.8-.824-2.1-3.253-2.67-5.28-1.2z"/><path d="M976.56 261.36c.487 1.195-4.005 31.773-7.68 46.8-1.824 7.455-2.987 15.026-4.56 22.56-1.572 7.52-3.48 15.862-3.648 23.772 2.39.295 4.25-.35 6.527-.252 5.736.247 12.45 3.476 14.396 7.44 2.124 4.32 1.278 12.25-.48 16.8-.315.818-.62 1.83-.946 2.637-.42 1.046-.835 1.907-1.212 2.643-.325.632-.792 1.446-1.288 2.232-.57.904-1.222 1.668-1.593 2.088-1.772 2.005-5.97 4.912-10.32 5.52-7.797 1.09-16.07-2.417-17.76-8.16-.96-3.26-.662-8.23-.24-11.76 1.14-9.562 3.9-19.105 5.52-28.8 1.606-9.627 3.742-19.24 5.52-28.8 1.752-9.422 4.13-18.853 6.24-28.08 2.147-9.386 4.84-27.14 6.635-28.098 2.026-1.468 4.06-.642 4.884 1.458zm-16.32 101.28c-5.176 3.935-5.386 22.797 1.44 24.48.93.23 3.602-.044 4.32-.24 2.002-.543 5.933-3.723 6.96-5.76.433-.858 1.215-3.57 1.68-5.76 1.977-9.31.138-15.28-10.08-13.92-2.006.268-3.216.36-4.32 1.2z"/><path fill="#fff" d="M964.56 361.44c10.218-1.362 12.057 4.61 10.08 13.92-.465 2.19-1.247 4.9-1.68 5.76-1.027 2.036-4.958 5.216-6.96 5.76-.72.195-3.39.47-4.32.24-6.826-1.684-6.616-20.546-1.44-24.48 1.104-.84 2.314-.932 4.32-1.2z"/></g><g fill-rule="evenodd" clip-rule="evenodd"><path fill="#fff" d="M906.5 211.747h20.64v51.6h-20.88v-50.88c-.02-.34-.04-.68.24-.72zm14.4.72c-8.025-1.98-9.86 6.136-6.72 11.04 2.59 1.64 6.278.644 8.4-.72 2.305-3.022 1.667-9.012-1.68-10.32zm-7.68 49.44c2.07-2.035 1.73-8.155 2.4-12 .524-3 2.028-7.282 2.64-10.32.85-4.21 2.932-13.886-3.6-11.04-2.55 1.112-2.98 7.317-4.08 10.8-2.17 6.87-3.456 14.545-3.36 21.84.994 1.578 4.427 2.267 6 .72z"/><path d="M939.135 350.772c-2.123 1.364-5.812 2.36-8.4.72-3.142-4.904-1.307-13.02 6.72-11.04 3.345 1.308 3.984 7.298 1.68 10.32zm-15.213 38.846c-.785-2.313 1.03-14.504 2.958-21.938.916-3.536 1.528-9.688 4.08-10.8 6.53-2.846 4.448 6.83 3.6 11.04-.612 3.038-1.51 7.427-2.033 10.427-.672 3.845-.937 9.858-3.007 11.893-1.574 1.547-4.604.955-5.598-.622z"/></g><g fill-rule="evenodd" clip-rule="evenodd"><path fill="#fff" d="M835.21 211.655h45.84v42h-46.08v-41.28c-.02-.34-.04-.68.24-.72zm32.88 3.84c-4.158-1.763-12.103-4.83-18.72-2.88-3.604 1.062-5.996 5.333-5.76 9.36.085 1.466.944 4.153 1.68 5.52 2.667 4.962 10.826 6.126 12.48 10.8 1.262 3.57-.428 6.477-2.64 7.2-6.694 2.188-12.72-3.465-18.72-1.92-1.48 2-.302 4.686 1.198 6 4.512 3.952 17.82 5.336 23.28 1.68 2.27-1.52 4.607-5.314 5.04-7.68.834-4.557-.88-8.236-2.64-10.56-1.438-1.9-4.12-3.794-6.48-5.52-2.106-1.54-5.388-4.29-4.8-7.2.447-2.218 3.41-2.556 6.48-2.16 4.074.526 9.27 3.842 12.72 2.16 1.003-3-1.115-3.95-3.118-4.8z"/><path d="M876.96 357.6c-3.448 1.682-8.646-1.634-12.72-2.16-3.07-.396-6.033-.058-6.48 2.16-.588 2.91 2.693 5.66 4.8 7.2 2.36 1.726 5.043 3.62 6.48 5.52 1.76 2.324 3.474 6.003 2.64 10.56-.433 2.366-2.77 6.16-5.04 7.68-5.46 3.656-18.77 2.27-23.28-1.68-1.5-1.314-2.678-4-1.2-6 6.002-1.545 12.027 4.108 18.72 1.92 2.214-.723 3.903-3.63 2.64-7.2-1.652-4.674-9.812-5.838-12.478-10.8-.735-1.367-1.595-4.054-1.68-5.52-.236-4.027 2.156-8.298 5.76-9.36 6.617-1.95 14.562 1.117 18.72 2.88 2 .85 4.12 1.8 3.118 4.8z"/></g><g fill-rule="evenodd" clip-rule="evenodd"><path fill="#fff" d="M881.3 227.6h45.84v42h-46.08v-41.28c-.02-.34-.04-.68.24-.72zm32.88 3.84c-4.157-1.764-12.102-4.83-18.72-2.88-3.603 1.06-5.995 5.332-5.76 9.36.086 1.465.945 4.152 1.68 5.52 2.668 4.96 10.827 6.125 12.48 10.8 1.263 3.568-.427 6.476-2.64 7.2-6.693 2.187-12.72-3.466-18.72-1.92-1.48 2-.3 4.685 1.2 6 4.51 3.95 17.818 5.336 23.28 1.68 2.268-1.52 4.606-5.315 5.04-7.68.833-4.558-.882-8.237-2.64-10.56-1.44-1.9-4.12-3.794-6.48-5.52-2.107-1.542-5.39-4.29-4.8-7.2.446-2.22 3.41-2.557 6.48-2.16 4.073.525 9.27 3.84 12.72 2.16 1.002-3.002-1.116-3.95-3.12-4.8z"/><path d="M914.4 358.08c-3.448 1.682-8.646-1.634-12.72-2.16-3.07-.396-6.033-.058-6.48 2.16-.588 2.91 2.693 5.66 4.8 7.2 2.36 1.727 5.043 3.62 6.48 5.52 1.76 2.324 3.474 6.003 2.64 10.56-.433 2.366-2.77 6.16-5.04 7.68-5.46 3.657-18.77 2.27-23.28-1.68-1.5-1.314-2.678-4-1.2-6 6.002-1.545 12.027 4.107 18.72 1.92 2.214-.723 3.903-3.63 2.64-7.2-1.652-4.674-9.812-5.838-12.478-10.8-.735-1.367-1.595-4.054-1.68-5.52-.236-4.027 2.156-8.298 5.76-9.36 6.617-1.95 14.562 1.117 18.72 2.88 2 .85 4.12 1.8 3.118 4.8z"/></g><g fill-rule="evenodd" clip-rule="evenodd"><path fill="#fff" d="M799.68 227.72h35.28v41.76h-35.52v-41.04c-.02-.342-.04-.68.24-.72zm25.68 37.68c3.394-2.695 7.735-10.314 7.92-16.56.358-12.117-5.168-20.19-18.24-17.76-4.324.803-8.608 5.06-10.8 9.12-4.194 7.768-3.038 19.504 2.16 25.92 6.488 4.326 14.556 2.775 18.96-.72z"/><path d="M806.61 387.264c-5.198-6.415-6.564-17.815-2.37-25.583 2.19-4.056 6.476-8.313 10.8-9.12 13.072-2.43 18.6 5.648 18.24 17.76-.185 6.25-4.526 13.87-7.92 16.56-4.404 3.498-12.262 4.71-18.75.386zm3.87-10.944c.47 4.298 4.316 6.365 8.4 5.04 2.84-.922 5.822-6.004 6.24-10.32.663-6.854-.498-11.164-6-10.32-7.002 1.074-9.513 7.588-8.64 15.6z"/><path fill="#fff" d="M819.12 360.72c5.503-.844 6.664 3.466 6 10.32-.417 4.316-3.398 9.398-6.24 10.32-4.083 1.325-7.93-.742-8.4-5.04-.873-8.012 1.638-14.526 8.64-15.6z"/></g><g fill-rule="evenodd" clip-rule="evenodd"><path fill="#fff" d="M733.205 86.153h64.08v172.32h-64.32v-171.6c-.02-.34-.04-.68.24-.72zm57.6 36.96c3.948-4.39 7.168-12.917 4.8-20.88-2.22-7.455-10.435-14.484-21.12-13.2-5.517.663-10.753 8.24-12.48 13.2-2.368 6.797-2.805 15.23-4.08 23.04-1.547 9.47-3.21 18.877-5.04 28.32-.887 4.574-2.323 9.058-3.12 13.68-3.305 19.17-6.667 38.28-10.56 56.16-.955 4.387-2.74 11.53-3.6 15.84-.702 3.516-3.863 14.676 2.88 13.68 4.386-.646 4.483-12.094 5.52-16.32.595-2.425 1.63-4.623 2.16-6.96.575-2.53.667-5.076 1.2-7.92 1.21-6.466 3.52-12.917 5.04-19.44 1.584-6.806 2.32-13.907 3.6-20.88 3.05-16.612 6.306-32.88 9.6-48.96 10.404-3.068 18.905-2.365 25.2-9.36z"/><path d="M762.86 390.96c-3.294 16.08-7.41 35.946-10.46 52.56-1.28 6.972-2.016 14.073-3.6 20.88-1.26 5.41-2.145 8.754-3.565 16.343-.533 2.843-2.1 8.485-2.675 11.018-.53 2.34-.918 4.62-1.513 7.048-1.036 4.226-1.78 15.588-6.168 16.235-6.745.996-3.584-10.164-2.88-13.68.86-4.31 2.643-11.453 3.6-15.84 3.89-17.88 8.26-39.214 10.945-55.84.765-4.73 1.594-8.126 2.732-14 1.83-9.442 3.492-18.85 5.04-28.32 1.274-7.81 1.71-16.243 4.08-23.04 1.727-4.96 6.963-12.537 12.478-13.2 10.687-1.284 18.902 5.745 21.12 13.2 2.37 7.962-.85 16.49-4.8 20.88-6.292 6.996-14.022 5.008-24.338 5.76zm19.3-21.36c-.488-3.918-4.92-8.2-9.36-7.68-3.648.426-4.617 4.405-5.52 7.92-1.08 4.21-1.882 8.752-2.16 12.96 9.103 2.513 18.127-4.48 17.04-13.2z"/><path fill="#fff" d="M765.12 382.8c.278-4.208 1.08-8.75 2.16-12.96.902-3.515 1.87-7.494 5.52-7.92 4.44-.52 8.872 3.762 9.36 7.68 1.087 8.72-7.937 15.713-17.04 13.2z"/></g><g fill-rule="evenodd" clip-rule="evenodd"><path fill="#fff" d="M668.485 243.994h42v47.04h-42.24v-46.32c-.02-.34-.04-.68.24-.72zm28.56 25.68c-1.142-1.284-2.184-3.1-3.36-4.56-1.856-2.3-5.456-5.755-2.64-9.36 1.764-2.26 8.313-2.472 9.84 0 1.08 1.75.027 6.37 2.16 6.96 3.402.94 3.852-6.192 3.36-8.16-.304-1.208-2.157-3.508-3.602-4.8-1.97-1.764-6.236-2.566-9.36-2.16-6.513.846-12.245 7.612-9.36 15.36.602 1.613 2.264 2.735 3.602 4.32 3.023 3.585 3.588 5.727 6.24 9.6 1.418 2.072 3.118 3.73 2.4 5.76-.823 2.323-8.946 1.854-11.522 1.44-4.346-.698-6.616-4.753-10.32-2.88-1.016 5.46 5.68 7.876 12.24 8.4 7.694.613 15.507-.525 17.04-5.76.756-7.566-3.29-10.303-6.72-14.16z"/><path d="M698.64 387.28c-1.534 5.236-9.347 6.375-17.04 5.76-6.563-.522-13.257-2.938-12.24-8.4 3.703-1.873 5.974 2.183 10.32 2.88 2.574.415 10.697.884 11.52-1.44.72-2.03-.233-3.953-1.652-6.025-2.65-3.873-4.195-5.012-7.125-8.875-1.253-1.653-2.862-3.166-3.463-4.78-2.886-7.747 2.847-14.513 9.36-15.36 3.123-.405 7.042.886 9.36 2.16 2.117 1.167 3.297 3.593 3.6 4.8.492 1.97.043 9.1-3.36 8.16-2.132-.588.315-3.855-2.16-6.96-1.812-2.27-8.075-2.258-9.84 0-2.815 3.606.784 7.06 2.64 9.36 1.178 1.46 2.22 3.277 3.36 4.56 3.428 3.858 7.474 6.595 6.72 14.16z"/></g><g fill-rule="evenodd" clip-rule="evenodd"><path fill="#fff" d="M649.67 248.6h20.64v60.96h-20.88v-60.24c-.02-.342-.04-.68.24-.72zm7.44 4.798c-2.178 7.095 3.755 11.442 9.12 9.6 1.02-.35 2.738-2.07 3.12-3.12 2.236-6.115-.932-11.967-7.68-10.32-2.787.68-4.196 2.66-4.56 3.84zm-4.08 33.12c-1.473 6.533-3.006 12.864-2.88 20.16 1.134 1.978 4.224 2.914 6.96 1.92 1.874-5.72 2.09-12.083 3.12-18.24 1.007-6.008 3.522-11.955 2.4-18-9.36-3.67-8.008 7.116-9.6 14.16z"/><path d="M661.92 333.6c6.747-1.647 9.915 4.205 7.68 10.32-.383 1.05-2.102 2.77-3.12 3.12-5.366 1.842-11.3-2.505-9.12-9.6.363-1.18 1.772-3.16 4.56-3.84zm.44 22.955c2.98 1.655.006 11.304-1 17.313-1.03 6.156-2.888 17.99-4.575 18.95-2.737.994-4.73-.1-5.862-2.075-.875-2.188.884-13.65 2.357-20.183 1.59-7.045 1.892-16.817 9.08-14.005z"/></g><g fill-rule="evenodd" clip-rule="evenodd"><path fill="#fff" d="M484.463 89.07h117.6v177.36h-117.84V89.79c-.02-.34-.04-.68.24-.72zm93.12 52.56c.76 4.46 1.254 8.78 2.16 13.2 1.302 6.353 2.92 12.806 3.84 19.2.306 2.13 1.03 4.11 1.44 6.24.23 1.187-.008 2.59.24 3.84.317 1.593 1.38 3.15 1.68 4.8 1.69 9.326 4.833 17.23 4.08 27.36-.304 4.087-.793 8.506-1.92 12.478-.858 3.025-2.52 7.755-4.08 10.32-.724 1.19-2.344 2.177-4.08 3.6-1.402 1.15-2.604 2.795-3.84 3.84-1.232 1.043-3.046 1.964-4.56 3.12-3.56 2.72-7.563 5.54-12.24 6.24-6.296.943-14.127.107-20.4-.24-3.148-.174-6.058-.948-8.88-1.68-2.8-.726-5.12-2.285-7.68-3.12-4.652-1.518-8.746-2.915-12.96-4.32-2.19-.73-3.824-1.924-5.76-2.88-1.964-.97-3.662-2.342-5.52-3.12-2.63-1.1-10.81-4.35-11.76-.24-1.056 4.57 10.777 7.165 14.16 8.64 1.868.816 3.66 2.51 5.76 3.602 2.156 1.12 4.593 2.046 6.48 3.12 1.458.83 2.448 2.538 3.84 3.12 1.344.56 3.022.434 4.32.96 1.65.668 2.934 1.648 4.56 2.16 4.995 1.567 11.28 3.178 18.24 3.6 6.375.386 13.74.986 19.44-.24 3.054-.657 6.204-2.686 9.6-4.08 3.398-1.396 6.792-2.604 9.36-4.32 5.88-3.933 8.723-9.382 12.96-14.64 1.146-2.856 1.856-5.646 2.64-9.12.48-2.118 1.474-4.188 1.68-6 1.208-10.56-1.044-21.55-2.64-29.52-1.335-6.674-3.398-13.014-4.32-19.92-.46-3.463-1.394-6.727-2.16-10.08-2.268-9.94-3.79-20.96-5.52-30.72-.63-3.57-1.345-7.46-1.44-10.8-.286-10.19 5.932-12.383 7.2-20.64.558-3.62-.57-8.73-1.68-10.56-2.347-3.874-10.45-6.826-17.28-5.04-1.91.498-5.703 3.375-7.44 5.04-2.653 2.542-6.233 7.37-7.44 10.56-2.92 7.725-.32 14.35 3.12 18.48 3.44 4.127 7.466 6.225 14.16 5.04 1.46 4.17 1.932 8.554 2.64 12.72z"/><path d="M574.08 389.52c-6.695 1.186-10.72-.912-14.16-5.04-3.442-4.13-6.042-10.754-3.12-18.48 1.206-3.188 4.786-8.017 7.44-10.56 1.736-1.663 5.53-4.54 7.44-5.04 6.83-1.786 14.933 1.167 17.28 5.04 1.11 1.83 2.236 6.94 1.68 10.56-1.27 8.258-7.487 10.452-7.2 20.64.094 3.34.808 7.23 1.44 10.8 1.728 9.76 3.25 20.78 5.52 30.72.766 3.355.958 6.663 1.772 10.06 1.625 6.773 3.372 13.268 4.707 19.94 1.593 7.972 3.845 18.96 2.64 29.52-.21 1.813-.747 4.258-1.225 6.376-.784 3.474-1.95 5.89-3.098 8.745-3.84 6.13-7.08 10.71-12.96 14.64-2.568 1.72-5.732 3.535-9.13 4.93-3.397 1.396-6.777 2.816-9.83 3.474-5.7 1.227-13.066.626-19.44.24-6.96-.422-13.246-2.032-18.24-3.6-1.627-.512-2.904-1.194-4.554-1.863-1.298-.525-1.298-.525-4.688-2.25-1.344-.684-3.105-1.295-4.563-2.125-1.887-1.073-3.558-1.906-5.813-2.813-2.587-1.037-4.376-2.06-7.314-3.5-3.315-1.62-13.25-4.477-12.193-9.05.95-4.11 8.5-.55 11.13.55 1.858.78 4.186 1.84 6.15 2.81 1.936.958 3.997 1.614 6.1 2.567 4 1.812 8.07 2.977 12.5 4.937 2.53 1.12 5 2.092 7.8 2.817 2.823.732 5.732 1.507 8.88 1.68 6.272.35 14.104 1.185 20.4.24 4.677-.7 9.122-1.983 12.607-4.8 3.25-2.624 4.08-3.457 5.314-4.5 1.237-1.045.91-1.03 3.063-3 1.656-1.514 3.014-3.31 3.737-4.5 1.562-2.564 3.222-7.294 4.08-10.32 1.127-3.972 1.616-8.39 1.92-12.478.753-10.13-2.39-18.033-4.08-27.36-.3-1.648-.715-3.06-1.033-4.652-.25-1.248-.656-2.8-.886-3.987-.41-2.128-1.134-4.11-1.44-6.24-.92-6.394-2.308-12.856-3.61-19.21-.906-4.418-1.63-8.73-2.39-13.19-.705-4.168-1.175-8.552-2.636-12.723zm-9.6-23.76c-1.92 3.973-1.746 12.115 1.68 12.96 4.61 1.137 10.26-2.532 12.24-6.24 1.016-1.9 2.576-5.53 2.4-8.4-.246-4.02-3.767-4.796-7.68-4.08-2.973.544-7.272 2.93-8.64 5.76z"/><path fill="#fff" d="M573.12 360c3.914-.716 7.434.06 7.68 4.08.176 2.87-1.384 6.5-2.4 8.4-1.98 3.708-7.63 7.377-12.24 6.24-3.426-.845-3.6-8.987-1.68-12.96 1.368-2.83 5.667-5.216 8.64-5.76z"/></g><g fill-rule="evenodd" clip-rule="evenodd"><path fill="#fff" d="M490.09 226.713h53.76v64.32h-54v-63.6c-.02-.34-.04-.68.24-.72zm10.32.72c-3.704.733-2.752 5.662-3.36 9.84-2.247 15.443-6.27 35.62-6.48 50.4 2.146 1.4 7.178 1.26 9.36 0 2.062-4.233 2.106-8.68 2.88-13.92.402-2.725 1.772-5.87 2.88-8.88 1.126-3.06 1.74-6.36 2.88-8.88 2.47-5.45 8.195-12.412 12.72-15.12 2.06-1.23 4.96-2.908 7.92-2.4 7.163 1.233 5.365 9.403 5.76 17.76.398 8.426-.346 15.364-.72 23.28-.282 5.972-.667 11.49 5.04 10.32 3.46-4.774 2.99-13.99 3.6-22.56.3-4.202.14-8.505.24-12.72.114-4.752.667-10.12-.24-13.2-3.987-13.528-25.825-12.88-33.36-2.16-1.53 2.176-1.388 5.272-4.56 5.76-2.714-3.852 4.594-19.33-4.56-17.52z"/><path d="M503.047 353.618c2.438-3.375 4.007-6.25 5.752-8.257 8.432-9.69 29.37-11.366 33.36 2.16.904 3.08.35 8.45.24 13.2-.104 4.217-.154 8.51-.24 12.72-.185 8.617.975 21.68-3.6 22.56-5.71 1.17-5.325-4.346-5.04-10.32.37-7.914 1.115-14.85.72-23.28-.398-8.355.905-15.86-6.258-17.092-2.958-.51-5.366.503-7.425 1.735-4.526 2.708-10.25 9.67-12.72 15.12-1.142 2.52-2.793 4.128-3.918 7.188-1.11 3.01-2.474 7.858-2.876 10.584-.773 5.24-.813 9.142-2.875 13.376-2.183 1.26-4.73 1.462-6.876.062-2.938-1.75 2.775-34.486 5.022-49.928.607-4.18 1.452-10.234 5.227-10.323 5.806-.136 1.188 15.5 1.5 20.5z"/></g><g fill-rule="evenodd" clip-rule="evenodd"><path fill="#fff" d="M459.403 185.495h33.84v68.16h-34.08v-67.44c-.02-.34-.04-.68.24-.72zm30.72 11.52c-.785-5.094-11.525-3.91-8.88 3.6 1.37 1.36 4.925 1.964 7.2.96.608-1.423 1.946-2.84 1.68-4.56zm-9.84 49.92c1.453-5.727 2.286-12.198 4.08-19.68.59-2.455.897-5.312 1.44-8.16.5-2.61 1.907-6.417 1.2-8.16-.82-2.024-6.022-2.798-8.16-.48-1.668 1.81-2.074 6.33-2.64 9.6-1.766 10.218-5.118 21.536-4.56 31.44 1.483.997 3.442 1.52 6 1.44 2.2-1.14 1.962-3.322 2.64-6z"/><path d="M479.672 343.055c-2.276 1.004-5.263.67-6.632-.69-2.646-7.51 8.094-8.694 8.88-3.6.265 1.72-.685 3.103-2.248 4.29zM469.44 394.56c-2.56.08-4.518-.442-6-1.44-2.893-2.502 2.485-21.646 4.56-31.44.688-3.247.97-7.788 2.64-9.6 2.137-2.317 7.26-1.784 7.72.35.498 2.31-.955 9.476-.76 8.29.47-2.86-.85 5.707-1.44 8.16-1.795 7.482-2.628 13.954-4.08 19.68-.68 2.678-.44 4.86-2.64 6z"/></g><g fill-rule="evenodd" clip-rule="evenodd"><path fill="#fff" d="M423.506 126.473h42.72v132h-42.96v-131.28c-.02-.34-.04-.68.24-.72zm24.24 30.48c1.326-3.436 1.96-8.46 2.64-13.92.58-4.635 5.542-18.498-3.12-15.84-1.952.6-3.322 5.338-3.84 7.68-2.11 9.54-3.86 20.155-5.76 28.8-1.45 6.597-2.973 12.997-4.56 21.6-1.493 8.092-3.19 15.468-3.84 22.32-.372 3.926-.46 8.207-1.2 12.48-.7 4.05-2.044 8.105-2.4 11.76-.403 4.152-2.042 11.14-.96 13.68.82 1.923 8.225 3.91 10.08 1.2.514-.75.46-2.29.72-3.6 1.874-9.496 1.842-23.972 8.16-28.8 1.773-1.355 6.993-3.724 9.84-1.44 1.434 1.15 2.322 5.494 2.64 7.92.487 3.713.24 8.53.24 13.44 0 3.153-.9 11.55.72 13.44 1.085 1.266 4.02 1.353 6 .96 2.284-6.028 2.135-15.024 1.92-23.28-.05-1.942.355-3.9.24-5.76-.488-7.863-4.363-15.77-8.88-18.48-1.787-1.072-5.934-2.084-9.12-1.2-2.253.625-2.7 3.03-5.52 2.64.813-15.43 4.847-29.712 6-45.6z"/><path d="M428.11 348.743c2.688-1.5 3.622-2.125 5.875-2.75 3.187-.884 7.025.178 8.813 1.25 4.517 2.71 7.665 8.95 8.152 16.813.115 1.86.44 4.323.49 6.265.215 8.26-.234 22.146-2.887 22.896-1.98.393-3.948.693-5.034-.572-1.62-1.89-.72-10.287-.72-13.44 0-4.91.244-9.727-.24-13.44-.32-2.426-1.21-6.77-2.64-7.92-2.85-2.284-8.07.085-9.84 1.44-6.32 4.828-7.098 18.838-8.16 28.8-.145 1.33-.21 2.85-.72 3.6-1.858 2.71-9.264.723-10.08-1.2-1.085-2.54.554-9.528.96-13.68.352-3.655 1.015-7.82 1.715-11.87.74-4.273 1.184-8.49 1.882-12.37 1.304-7.255 2.346-14.228 3.84-22.32 1.586-8.603 3.11-15.003 4.56-21.6 1.898-8.645 3.648-19.26 5.76-28.8.517-2.342 1.887-7.08 3.84-7.68 8.66-2.658 4.522 11.18 3.554 15.958-1.092 5.39-1.484 8.253-2.687 13.94-1.61 10.38-5.624 31.254-6.436 46.684z"/></g><g fill-rule="evenodd" clip-rule="evenodd"><path fill="#fff" d="M341.7 122.158h54.72v124.08h-54.96v-123.36c-.02-.34-.04-.68.24-.72zm44.88 4.32c-3.883.58-4.763 4.147-6 7.68-1.913 5.462-3.258 11.517-5.04 17.04-2.003 6.206-4.487 13.136-5.76 20.16-1.38 7.61-3.725 14.812-4.56 21.36-1.85 1.366-.678 4.102-2.4 5.52-.802.66-3.213.582-5.04.96-1.71.354-3.505 1.063-4.8 1.44-7.452 2.17-12.332 2.575-10.56 12.72 6.632 1.877 11.553-4.35 17.28-3.36-2.604 10.854-2.302 26.558 4.8 32.88 4.467 1.475 11.48 4.632 16.8 2.16 2.097-5.788-2.27-5.54-5.52-7.68-1.8-1.185-4.083-3.528-4.8-5.76-1.214-3.783-.966-8.758-.72-12.72.272-4.383 1.08-8.52 1.92-12.72 3.79-1.683 7.454-4.263 11.52-6.24 3.574-1.738 12.283-4.53 12.24-8.88-.02-2.157-2.028-4.052-3.84-4.32-5.614-.832-8.848 6-13.68 5.28-.09-5.193 1.533-10.05 2.64-14.88 2.277-9.933 4.254-19.608 6.96-29.04 1.777-6.196 3.768-11.853 4.08-18.96-1.416-1.62-2.46-3.097-5.52-2.64z"/><path d="M405.165 277.68c-.312 7.107-2.303 12.764-4.08 18.96-2.706 9.432-4.683 19.107-6.96 29.04-1.107 4.83-3.078 11.76-4.078 17.25 4.625-2.188 8.983-6.11 15.118-7.65 1.776-.446 4.986 1.493 5.007 3.65.043 4.35-10.24 8.637-13.813 10.375-4.068 1.978-7.328 3.732-11.118 5.415-.84 4.202-1.648 8.337-1.92 12.72-.246 3.962-.494 8.937.72 12.72.716 2.232 3 4.575 4.8 5.76 3.25 2.14 6.877 2.2 4.78 7.988-5.318 2.473-11.64.21-16.06-2.468-7.103-6.323-7.244-23.344-4.64-34.198-6.5 1-15.312 3-16.156.063-.563-6.5 3.763-6.588 7.093-7.875 1.26-.486 5.272-1.316 6.982-1.67 1.827-.378 4.322-.21 5.04-.96 1.788-1.87 1.163-2.683 2.4-5.52.834-6.548 2.387-13.663 4.56-21.36 1.94-6.87 3.757-13.955 5.76-20.16 1.782-5.523 3.127-11.578 5.04-17.04 1.237-3.533 2.117-7.102 6-7.68 3.063-.456 4.106 1.02 5.522 2.64z"/></g><g fill-rule="evenodd" clip-rule="evenodd"><path fill="#fff" d="M264.324 200.67h92.88v131.52h-93.12v-130.8c-.02-.34-.04-.68.24-.72zm51.12 2.16c-3.33 1.01-2.97 3.85-3.84 7.68-2.27 10.02-8.185 25.71-5.04 35.76 2.204 3.55 13.89 3.653 17.76 1.92 4.56-2.04 6.29-8.762 10.8-8.398 1.31 2.518 1.13 5.335 1.68 7.92.556 2.62 1.57 4.94 2.16 7.44 1.418 6.014 2.532 12.08 4.32 18 .358 1.187 1.155 2.142 1.44 3.36.32 1.375.184 3.02.48 4.56.486 2.527 1.48 4.915 1.68 7.44.257 3.216.54 7.02.48 9.6-.122 5.24-2.937 11.358-5.28 14.4-1.674 2.173-6.264 6.87-8.64 7.92-5.598 2.47-17.464 2.683-24.72 1.44-2.474-.425-7.54-1.684-9.84-2.642-.905-.376-1.904-1.484-3.12-2.16-3.744-2.077-6.068-3.72-9.36-6.24-2.248-1.72-4.288-3.423-5.04-5.28-2.607-6.43 1.71-11.572 5.28-14.16 4.224-3.06 10.432-4.363 16.32-4.56-.37-5.417-8.763-6.61-12.96-5.76-3.34.677-8.472 2.405-10.32 3.6-2.15 1.39-5.193 4.593-6.96 6.72-1.81 2.18-4.478 5.816-5.04 7.92-2.472 9.25 4.454 12.88 8.88 16.32 1.688 1.314 3.385 3.153 4.56 3.84 1 .587 2.5.563 3.6 1.2 2.197 1.276 4.015 3.312 6.48 4.32 1.03.422 2.045.258 3.36.72 1.094.386 2.073 1.31 3.36 1.68 2.197.634 5.23 1.05 7.92 1.682 2.565.602 4.943 1.538 6.96 1.92 3.81.72 8.88.63 13.2.48 9.523-.33 14.042-2.196 19.2-6.24 2.3-1.804 5.058-3.31 6.48-5.28 1.195-1.657 2.053-4.488 2.88-6.72 2.46-6.64 2.538-14.383 1.44-21.84-.99-6.722-2.053-11.807-3.36-17.52-1.2-5.25-3.066-11.552-4.32-16.562-.515-2.057-.566-4.038-.96-6.24-.85-4.746-2.79-9.163-3.12-12.96-.43-4.92.016-9.882.48-14.16.844-7.773 5.16-13.907.48-20.16-3.188-.85-6.102.737-7.92 3.36-3.02 4.357-3.436 10.907-5.52 16.56-.545 1.48-.48 3.602-1.204 5.13-2.074 4.377-4.29 7.52-8.637 9.03-1.9.662-6.11 1.09-7.44 0-1.07-.876-1.073-4.01-.72-6 1.65-9.296 6.306-18.59 6.24-28.8-1.366-.715-3.074-.69-4.56-.24z"/><path d="M318.422 350.368c.066 10.21-4.293 19.295-5.942 28.593-.353 1.99-.35 5.126.72 6 1.33 1.09 5.54.664 7.44 0 4.346-1.51 7.77-3.59 9.845-7.965.725-1.53 1.58-4.77 2.125-6.25 2.084-5.654 2.417-13.207 5.438-17.563 1.818-2.623 2.685-3.15 5.873-2.3 4.68 6.25.367 12.386-.48 20.16-.46 4.278-.906 9.24-.48 14.16.334 3.797 1.804 8.296 2.65 13.043.397 2.2.918 4.1 1.43 6.157 1.257 5.01 3.12 11.31 4.32 16.56 1.31 5.714 2.37 10.8 3.36 17.52 1.1 7.458 1.02 15.202-1.44 21.84-.824 2.232-1.682 5.063-2.88 6.72-1.42 1.972-2.99 3.463-5.29 5.266-5.155 4.045-10.864 5.926-20.39 6.255-4.316.15-9.386.243-13.2-.477-2.014-.382-4.404-.674-6.97-1.275-2.69-.632-5.803-1.43-8-2.062-1.287-.37-2.28-.803-3.375-1.188-1.314-.463-2.223-1.054-3.252-1.475-2.464-1.01-4.737-2.437-6.934-3.712-1.1-.64-2.146-1.222-3.146-1.808-1.174-.688-3.228-2.13-4.916-3.442-4.426-3.442-10.994-7.47-8.522-16.718.563-2.104 2.776-6.415 4.585-8.595 1.768-2.128 5.267-4.655 7.416-6.045 1.848-1.195 6.98-2.924 10.32-3.6 4.197-.85 12.59.342 12.96 5.76-5.888.195-12.096 1.5-16.32 4.56-3.57 2.587-7.887 7.73-5.28 14.16.752 1.856 1.657 3.82 3.905 5.54 3.293 2.52 5.88 3.984 9.626 6.063 1.216.675 3.084 1.7 3.99 2.077 2.3.958 7.367 2.217 9.84 2.64 7.256 1.244 19.047.855 24.72-1.44 5.013-2.026 6.966-5.745 8.64-7.92 2.343-3.04 5.158-9.158 5.28-14.398.06-2.58-.223-6.384-.48-9.6-.2-2.525-.753-4.956-1.24-7.483-.296-1.54-.99-2.687-1.313-4.063-.286-1.217-.69-2.627-1.048-3.813-1.788-5.92-2.902-11.986-4.32-18-.59-2.5-1.14-4.82-1.695-7.44-.55-2.585-.835-5.402-2.146-7.92-3.105-1.825-5.733 4.447-10.292 6.487-3.87 1.73-14.17 1.484-16.375-2.064-5.313-8.813.876-23.687 3.147-33.705.87-3.83.875-7.536 4.207-8.543 1.484-.45 3.207-.328 3.894 1.312z"/></g><g fill-rule="evenodd" clip-rule="evenodd"><path fill="#fff" d="M277.174 261.78h45.36v66.72h-45.6v-66c-.02-.342-.04-.68.24-.72zm13.2 2.16c-1.683 2.864-1.26 6.194-1.92 9.36-1.318 6.31-2.865 12.72-4.56 18.96-1.386 5.103-1.807 10.515-3.12 15.6-1.297 5.02-3.803 9.69-3.36 14.88 1.13 1.4 3.796.8 5.76.48 2.968-3.565 3.074-8.887 4.56-13.68.413-1.33 1.433-2.486 1.92-3.84.532-1.478.77-3.08 1.2-4.56 1.414-4.873 2.35-8.703 4.32-12 2.467-4.13 4.94-9.637 11.28-8.88 2.86 1.755 1.894 5.746 1.68 8.88-.704 10.313-2.362 20.38-2.64 30.48 1.964 1.775 2.815 5.744 7.2 4.32 1.44-4.486 2.778-11.26 3.6-17.76.756-5.977 1.764-13.637 2.16-19.68.693-10.572-.805-19.477-9.6-19.68-2.923-.067-6.54 1.294-8.64 2.4-1.813.955-2.352 3.307-5.04 3.12-1.252-2.213.858-6.002-.48-8.4-1.495-.284-2.747-.22-4.32 0z"/><path d="M268.08 336.92c1.338 2.397-.772 6.187.48 8.4 2.688.187 3.227-2.166 5.04-3.12 2.1-1.106 5.717-2.467 8.64-2.4 8.795.203 10.293 9.108 9.6 19.68-.396 6.043-1.404 13.703-2.16 19.68-.822 6.5-1.653 17.02-3.6 17.76-4.385 1.424-6.303.01-7.2-4.32.278-10.1 1.937-20.167 2.64-30.48.213-3.134 1.18-7.125-1.68-8.88-6.34-.757-8.813 4.75-11.28 8.88-1.97 3.297-2.906 7.127-4.32 12-.43 1.48-.918 2.5-1.45 3.977-.488 1.354-.934 4.027-1.346 5.357-1.486 4.793-1.915 9.182-4.883 12.746-2.364 1.897-3.2 1.647-5.76-.48-.053-3.54 1.85-11.744 3.147-16.767 1.313-5.084 1.95-8.61 3.336-13.713 1.696-6.24 2.763-12.832 4.08-19.144.662-3.165 1.084-7.973 2.4-9.176 2.12-1.656 3.516-1.406 4.32 0z"/></g><g fill-rule="evenodd" clip-rule="evenodd"><path fill="#fff" d="M-33.627 151.645h161.76v189.84h-162v-189.12c-.02-.34-.04-.68.24-.72zm97.92 107.28c-.086-3.947-.082-8.55.24-12.24.305-3.5 1.4-6.948 1.68-10.32.102-1.238-.134-2.432 0-3.6.32-2.79 1.806-5.296 2.16-7.92.187-1.388-.016-2.943.24-4.32 1.25-6.748 4.245-13.07 5.04-18.72 1.456-10.348 5.057-17.512 7.92-25.92.614-1.802.697-3.662 1.2-5.52.636-2.348 2.056-4.525 2.4-6.96.363-2.575.88-6.54.48-7.68-1.57-4.455-6.612.537-7.92 2.4-.706 1.005-.814 2.275-1.44 3.36-2.5 4.33-5.277 8.306-7.2 13.2-.427 1.086-.327 2.436-.72 3.6-.908 2.69-2.707 5.025-3.84 7.68-1.693 3.968-2.29 8.29-3.84 12.48-.894 2.417-2.693 4.828-3.84 7.44-2.292 5.217-4.317 10.698-6.96 15.6-1.415 2.625-2.303 5.272-3.6 7.68-.998 1.854-2.758 3.294-3.84 5.04-2.832 4.568-5.035 9.433-7.44 14.16-2.718 5.342-7.303 9.69-10.32 14.64-2.825 4.635-4.045 10.36-8.88 13.2-1.78 3.5-4.012 6.548-6.72 9.12-1.635-.685-4.194-.446-6.48-.48-3.918-1.618-8.23-4.068-13.92-3.12-1.922 2.78-4.723 4.534-3.84 7.92.484 1.856 7.568 6.07 8.88 6.72 1.655.82 4.177.982 4.32 2.64.088 1.02-3.15 4.362-4.08 5.52-3.623 4.515-5.38 6.813-8.64 10.8-1.623 1.985-3.184 4.307-4.32 5.52-2.398 2.56-6.97 4.893-10.08 7.44-1.254 1.027-4.288 3.794-4.32 5.04-.032 1.25 2.27 4.06 3.6 4.32 1.094.215 3.53-.375 5.04-.96 1.76-.68 5.816-3.517 7.2-4.56 1.845-1.39 3.453-3.564 5.52-5.04 1.29-.92 2.865-1.376 4.08-2.4 1.17-.986 2.278-2.043 3.36-3.12 2.347-2.334 4.933-4.135 6.96-6.24 1.517-1.575 2.747-3.758 4.32-5.52 2.693-3.018 5.24-5.57 7.2-8.88 3.242-2.474 10.13-.98 14.88-1.44 2.542-.246 5.08-1.332 7.44-1.92 3.186-.794 4.82-1.427 7.2-2.16 4.91-1.514 9.113-4.483 14.4-5.28 2.45 3.15 3.213 8.134 4.56 12.24.51 1.553 1.48 2.795 2.16 4.08-.164 3.184 1.793 4.89 2.64 6.96.61 1.488.72 3.022 1.44 4.32 1.494 2.688 4.287 5.427 6.72 7.92 4.63 4.744 7.406 9.514 13.44 12.24.885.398 1.898.344 2.88.72 1.18.452 1.823 1.394 2.88 1.68 2.723.74 8.397.886 11.76.24.584-.112 1.313-.74 2.4-.96 2.75-.56 6.49-.7 8.64-1.68 2.076-.945 3.97-2.7 6-4.32 2.675-2.132 7.096-5.902 2.64-7.68-2.56.002-4.508 1.948-6.96 2.88-7.16 2.72-19.35 2.195-24.96-.96-1.917-1.078-3.39-3.21-5.28-5.28-3.62-3.964-7.07-6.76-9.84-11.28-1.452-2.37-3.344-4.82-4.08-6.72-.72-1.862-.963-4.036-1.68-6-1.345-3.686-3.43-6.792-2.88-12.24 2.866-3.693 8.496-5.357 13.92-8.64 2.108-1.276 4.565-2.452 6.96-4.32 2.166-1.69 5.276-3.672 5.52-5.76.446-3.82-3.053-5-4.8-7.2-4.905.46-7.824 2.52-11.04 4.56-4.486 2.845-8.76 5.094-14.64 6.48-1.59-3.202-1.818-7.757-1.92-12.48z"/><path d="M183.026 331.18c5.88-1.386 10.008-5.056 14.494-7.9 3.215-2.04 6.578-4.612 11.34-4.037 2.863 1.522 4.947 2.857 4.5 6.677-.244 2.088-3.354 4.07-5.52 5.76-2.395 1.868-4.852 3.044-6.96 4.32-5.424 3.283-11.054 4.947-13.92 8.64-.55 5.448 1.055 9.104 2.4 12.79.717 1.964 1.44 3.588 2.16 5.45.736 1.9 2.628 4.352 4.08 6.72 2.77 4.52 5.64 7.7 9.26 11.664 1.89 2.07 3.943 3.818 5.86 4.896 5.61 3.155 17.8 3.68 24.96.96 2.452-.932 4.4-2.878 6.96-2.88 4.457 1.778.645 6.225-2.03 8.357-2.03 1.618-4.534 2.698-6.61 3.643-2.15.98-4.222 1.464-6.974 2.023-1.087.22-3.482.505-4.066.617-3.363.646-9.037.498-11.76-.24-1.057-.286-1.91-.676-3.09-1.127-.982-.376-1.785-.874-2.67-1.273-6.034-2.726-8.033-5.815-12.664-10.56-2.434-2.493-6.002-6.912-7.497-9.6-.724-1.297-1.887-3.048-2.496-4.537-.847-2.07-1.61-4.09-2.646-7.513-.895-2.657-.59-1.757-1.1-3.31-1.35-4.106-2.11-9.09-4.56-12.24-5.29.797-8.913 3.58-13.824 5.094-2.378.733-1.673.356-6.61 1.793 0 0-5.626.938-7.75 1.063-5.123.3-12.497.375-15.74 2.85-3.074 2.525-4.574 4.545-7.574 8.588-1.408 1.897-3.045 3.925-4.563 5.5-2.03 2.104-3.997 4.218-6.344 6.552-1.082 1.077-2.19 2.134-3.36 3.12-1.215 1.023-2.737 2.095-4.026 3.015-2.066 1.476-3.728 3.034-5.573 4.425-1.383 1.043-5.44 3.88-7.2 4.56-1.51.585-3.946 1.175-5.04.96-1.33-.26-3.61-1.86-3.6-4.32.01-2.397 3.065-4.012 4.32-5.04 3.11-2.546 6.873-5.34 9.552-7.792 1.225-1.122 3.223-3.182 4.846-5.167 3.26-3.985 5.017-6.283 8.64-10.8.93-1.155 4.168-4.5 4.08-5.52-.143-1.654-2.268-2.295-3.922-3.114-1.312-.65-8.063-3.438-9.277-6.243-1.39-3.21 1.277-6.63 3.34-6.694 5.688-.95 9.875.25 14.5 1.374 2.977.4 4.063.814 6.4 1 2.708-2.57 5.035-5.447 7.1-9 3.692-4.19 5.675-8.684 8.5-13.32 3.017-4.95 7.157-10.232 9.875-15.574 2.405-4.728 5.053-8.658 7.885-13.226 1.083-1.745 2.43-3.775 3.428-5.63 1.297-2.407 2.598-4.464 4.013-7.09 2.643-4.9 4.67-10.382 6.96-15.6 1.147-2.61 2.32-5.33 3.215-7.746 1.55-4.19 2.77-8.205 4.465-12.173 1.133-2.654 2.127-4.95 3.035-7.64.393-1.163 1.098-2.553 1.525-3.64 1.923-4.893 4.414-9.155 6.913-13.484.627-1.083 1.023-2.07 1.73-3.073 1.307-1.862 6.35-6.854 7.92-2.4.4 1.14-.118 5.106-.48 7.68-.345 2.436-1.345 4.76-1.98 7.108-.504 1.857-1.007 3.57-1.62 5.372-2.864 8.41-4.88 15.128-7.92 25.92-1.548 5.492-3.79 11.972-5.04 18.72-.256 1.377-.86 3.287-1.046 4.675-.354 2.625-1.035 4.775-1.355 7.566-.136 1.168-.545 2.885-.647 4.123-.28 3.37-.73 6.296-1.035 9.797-.323 3.69-.327 8.293-.24 12.24.102 4.723.478 10.698 2.066 13.9zM171.6 290.64c-2.297 1.862-2.57 4.346-4.24 7.165-1.472 3.478-3.128 5.84-4.4 8.435-.936 1.91-1.502 3.306-2.6 5.128-1.13 1.875-2.216 3.436-3.16 5.672-1.627 3.854-4.164 9.88-2.16 6 1.335-2.584-3.35 4.855-4.8 7.44-1.496 2.664-3.015 5.32-4.32 8.16-1.83 2.01-4.02 3.66-5.04 6.48 2.045.84 4.63.56 6.96 0 3.22-.774 7.115-2.11 10.8-3.12 4.238-1.163 10.513-2.984 13.2-5.28 1.21-4.084-.19-7.807-.48-11.28-1.01-12.056 2.28-23.68.96-34.8h-.72z"/><path fill="#fff" d="M171.84 290.64h.48c1.32 11.12-1.97 22.744-.96 34.8.29 3.473 1.69 7.196.48 11.28-2.688 2.296-8.962 4.117-13.2 5.28-3.685 1.01-7.58 2.346-10.8 3.12-2.33.56-4.915.84-6.96 0 2.063-3.44 2.4-4.93 4.23-6.94 2-2.833 3.634-5.037 5.13-7.7 1.452-2.585 2.91-5.09 4.245-7.675.957-1.854 2.137-3.442 3.042-5.375.745-1.59 1.93-3.602 3.033-5.43 1.098-1.822 1.464-3.85 2.4-5.76 1.272-2.596 2.916-5.334 4.4-8.435 1.414-2.885 1.942-5.303 4.24-7.165h.24z"/></g></svg>
