<svg version="1" xmlns="http://www.w3.org/2000/svg" width="262.551" height="40"><rect x="5.131" y="6.283" width="146.465" height="33.717" fill="none"/><path d="M36.222 7.312c0 .363-.142.696-.424.999-.283.303-.596.454-.938.454-.182 0-.374-.03-.575-.091-.202-.061-.363-.116-.484-.167l-.363-.151c-.657 11.413-2.216 19.744-4.678 24.991-.646 1.362-1.413 2.044-2.301 2.044-2.503 0-4.365-4.93-5.585-14.789-1.604 4.773-2.927 8.129-3.966 10.066-1.171 2.199-2.326 3.299-3.466 3.299-.787 0-1.524-.474-2.21-1.422-.656-.908-1.368-2.397-2.134-4.466-1.525-4.138-2.286-10.348-2.286-18.633v-1.09c-.203.02-.47.066-.803.136-.282.061-.484.091-.605.091-1.009 0-1.514-.52-1.514-1.559 0-1.221 1.614-1.832 4.844-1.832 1.503 0 2.709.189 3.618.567.908.379 1.362.851 1.362 1.416 0 1.08-.484 1.62-1.453 1.62-.242 0-.611-.07-1.105-.212-.545-.161-.984-.257-1.317-.288l-.061 3.785c0 7.518 1.251 13.643 3.754 18.375 1.554-2.148 3.32-6.457 5.298-12.926.353-1.15.706-2.568 1.06-4.253.292-1.393.524-2.28.696-2.664.272-.615.671-.923 1.196-.923.736 0 1.216.348 1.438 1.044.151.495.227 1.524.227 3.088 0 .252-.005.553-.015.9l-.015.644c0 6.136 1.004 11.489 3.012 16.06 2.119-5.408 3.461-13.199 4.026-23.371-.151.01-.409.056-.772.136-.303.071-.54.106-.711.106-.989 0-1.483-.515-1.483-1.544 0-1.181 1.352-1.771 4.057-1.771 1.372 0 2.513.242 3.421.727.836.453 1.255.988 1.255 1.604zm16.59 12.518c0 2.967-.868 5.331-2.604 7.091-1.736 1.762-4.052 2.642-6.948 2.642-2.402 0-4.284-.819-5.646-2.46-1.362-1.64-2.043-3.917-2.043-6.834 0-3.067.822-5.449 2.467-7.145 1.614-1.665 3.854-2.498 6.721-2.498 2.401 0 4.344.843 5.828 2.528 1.483 1.686 2.225 3.911 2.225 6.676zm-3.012.03c0-2.028-.492-3.615-1.476-4.76-.984-1.146-2.329-1.718-4.034-1.718-3.805 0-5.707 2.286-5.707 6.857 0 2.109.414 3.731 1.241 4.866.827 1.136 2.013 1.703 3.557 1.703 1.998 0 3.567-.61 4.708-1.831 1.14-1.221 1.711-2.927 1.711-5.117zm17.271-4.117c0 .384-.116.707-.348.969-.232.263-.51.394-.833.394-.242 0-.601-.176-1.075-.53-.475-.353-.903-.53-1.287-.53-.959 0-1.736.421-2.331 1.264-.596.842-.893 1.98-.893 3.413v1.982c0 2.211-.232 3.967-.696 5.268-.434 1.222-.994 1.832-1.68 1.832-.918 0-1.377-.454-1.377-1.362 0-.182.141-.851.424-2.006.282-1.155.424-2.242.424-3.262 0-2.825-.404-5.086-1.211-6.781-.021-.05-.298-.56-.833-1.529-.272-.494-.409-.888-.409-1.181 0-.323.156-.625.469-.908.313-.282.651-.424 1.014-.424 1.069 0 1.958 1.312 2.664 3.936 1.049-2.018 2.578-3.027 4.586-3.027 1.009 0 1.826.235 2.452.704.627.469.94 1.061.94 1.778zm6.478 14.909c0 .687-.045 1.155-.136 1.408-.172.443-.549.666-1.131.666-.954 0-1.516-.777-1.687-2.332-.291-2.623-.437-6.215-.437-10.777 0-5.096.07-8.229.211-9.4.16-1.281.667-1.922 1.521-1.922 1.005 0 1.507.611 1.507 1.832 0 .303-.056 1.506-.167 3.61-.111 2.104-.167 4.044-.167 5.82 0 1.554.081 3.565.242 6.032.163 2.468.244 4.155.244 5.063zm20.268-22.72c0-.061-.061.696-.182 2.271-.131 1.827-.242 3.769-.333 5.828-.111 2.967-.167 6.126-.167 9.476 0 .687.005 1.391.015 2.111l.015 1.143c0 1.504-.477 2.256-1.43 2.256-1.045 0-1.567-.848-1.567-2.543 0-.394.01-.701.03-.924-1.905 1.877-4.112 2.816-6.623 2.816-2.096 0-3.757-.679-4.982-2.036s-1.837-3.222-1.837-5.593c0-3.229.89-5.838 2.668-7.826 1.779-1.988 4.11-2.982 6.993-2.982 1.341 0 2.727.308 4.158.923.07-2.795.167-4.47.288-5.025.223-1.029.781-1.544 1.673-1.544.855-.001 1.281.55 1.281 1.649zm-3.39 7.871c-1.32-.827-2.646-1.241-3.976-1.241-2.056 0-3.678.709-4.867 2.126-1.189 1.418-1.784 3.343-1.784 5.774 0 1.666.4 2.96 1.202 3.883.801.924 1.907 1.385 3.317 1.385 1.773 0 3.124-.59 4.051-1.771.262-.394.519-.792.771-1.196.292-.424.655-.676 1.088-.756.001-2.835.066-5.57.198-8.204zm33.482-5.737c0 .908-.621 1.362-1.862 1.362.171 0-.929-.136-3.3-.409-2.432-.282-4.97-.434-7.614-.454.353 1.695.56 4.072.621 7.129.434.021 1.034.03 1.801.03 1.271 0 2.507-.053 3.708-.159 1.201-.105 1.761-.159 1.68-.159 1.14 0 1.71.51 1.71 1.529 0 .888-.934 1.443-2.8 1.665-.525.061-1.887.091-4.087.091h-2.013c-.071 4.965-.222 8.27-.454 9.915-.303 2.139-.903 3.209-1.801 3.209-.949 0-1.423-.49-1.423-1.469 0 .333.119-.805.355-3.413.237-2.608.356-5.396.356-8.363 0-4.41-.217-7.654-.651-9.733-1.171.232-1.998.348-2.482.348-1.12 0-1.68-.52-1.68-1.559 0-1.342 2.81-2.013 8.431-2.013 3.612 0 6.695.227 9.249.681 1.504.274 2.256.864 2.256 1.772zm4.284 20.586c0 .687-.045 1.155-.136 1.408-.172.443-.549.666-1.131.666-.954 0-1.516-.777-1.687-2.332-.291-2.623-.437-6.215-.437-10.777 0-5.096.07-8.229.211-9.4.16-1.281.667-1.922 1.521-1.922 1.005 0 1.507.611 1.507 1.832 0 .303-.056 1.506-.167 3.61-.111 2.104-.167 4.044-.167 5.82 0 1.554.081 3.565.242 6.032.163 2.468.244 4.155.244 5.063zm15.424-19.072c0 1.271-.515 3.472-1.544 6.6-.949 2.887-2.654 6.545-5.116 10.975-.495.998-.994 1.998-1.499 2.996-.434.777-.949 1.166-1.544 1.166-.354 0-.673-.151-.961-.454-.287-.303-.431-.636-.431-.999 0-.656.445-1.751 1.335-3.285 2.033-3.548 3.084-5.383 3.155-5.504-1.976-2.661-3.538-5.14-4.687-7.438-.918-1.826-1.377-3.063-1.377-3.708 0-.908.434-1.362 1.303-1.362.545 0 1.091.475 1.636 1.423.495 1.06.985 2.119 1.47 3.179.865 1.847 1.86 3.568 2.985 5.164.747-1.928 1.342-3.937 1.786-6.026.474-2.17.716-3.275.726-3.315.293-.827.749-1.241 1.366-1.241.932-.002 1.397.608 1.397 1.829z"/></svg>